<?xml version="1.0" encoding="utf-8"?><!DOCTYPE svg PUBLIC "-//W3C//DTD SVG 1.1//EN" "http://www.w3.org/Graphics/SVG/1.1/DTD/svg11.dtd"><svg xmlns="http://www.w3.org/2000/svg" xmlns:xlink="http://www.w3.org/1999/xlink"><symbol viewBox="0 0 13.2812 24.2188" id="about-mobile-dev" xmlns="http://www.w3.org/2000/svg"><desc>Created with Pixso.</desc><defs/><path d="M11.71 0L1.56 0C1.14 0 0.75 0.16 0.45 0.45C0.16 0.75 0 1.14 0 1.56L0 22.65C0 23.07 0.16 23.46 0.45 23.76C0.75 24.05 1.14 24.21 1.56 24.21L11.71 24.21C12.13 24.21 12.53 24.05 12.82 23.76C13.11 23.46 13.28 23.07 13.28 22.65L13.28 1.56C13.28 1.14 13.11 0.75 12.82 0.45C12.53 0.16 12.13 0 11.71 0ZM8.46 0.78L8.24 1.56L4.99 1.56L4.79 0.78L8.46 0.78ZM12.5 22.65C12.49 22.86 12.41 23.06 12.27 23.2C12.12 23.35 11.92 23.43 11.71 23.43L1.56 23.43C1.35 23.43 1.15 23.35 1.01 23.2C0.86 23.06 0.78 22.86 0.78 22.65L0.78 1.56C0.78 1.35 0.86 1.15 1.01 1.01C1.15 0.86 1.35 0.78 1.56 0.78L3.99 0.78L4.3 2.04C4.32 2.13 4.37 2.2 4.44 2.26C4.51 2.31 4.6 2.34 4.68 2.34L8.54 2.34C8.63 2.34 8.71 2.31 8.78 2.26C8.84 2.21 8.89 2.14 8.92 2.05L9.28 0.78L11.71 0.78C11.92 0.78 12.12 0.86 12.27 1.01C12.41 1.15 12.49 1.35 12.5 1.56L12.5 22.65Z" fill-opacity="1.000000" fill-rule="nonzero"/><path d="M4.68 21.87L1.95 21.87C1.84 21.87 1.75 21.91 1.67 21.98C1.6 22.06 1.56 22.16 1.56 22.26C1.56 22.36 1.6 22.46 1.67 22.54C1.75 22.61 1.84 22.65 1.95 22.65L4.68 22.65C4.79 22.65 4.89 22.61 4.96 22.54C5.03 22.46 5.07 22.36 5.07 22.26C5.07 22.16 5.03 22.06 4.96 21.98C4.89 21.91 4.79 21.87 4.68 21.87Z" fill-opacity="1.000000" fill-rule="nonzero"/><path d="M6.25 21.87L5.85 21.87C5.75 21.87 5.65 21.91 5.58 21.98C5.5 22.06 5.46 22.16 5.46 22.26C5.46 22.36 5.5 22.46 5.58 22.54C5.65 22.61 5.75 22.65 5.85 22.65L6.25 22.65C6.35 22.65 6.45 22.61 6.52 22.54C6.59 22.46 6.64 22.36 6.64 22.26C6.64 22.16 6.59 22.06 6.52 21.98C6.45 21.91 6.35 21.87 6.25 21.87Z" fill-opacity="1.000000" fill-rule="nonzero"/><path d="M8.01 9.82C7.96 9.79 7.92 9.77 7.87 9.76C7.81 9.76 7.76 9.76 7.71 9.77C7.66 9.78 7.62 9.81 7.57 9.84C7.53 9.87 7.5 9.91 7.47 9.95L5.13 13.86C5.08 13.95 5.06 14.05 5.08 14.15C5.11 14.25 5.17 14.34 5.26 14.39C5.35 14.45 5.46 14.46 5.56 14.44C5.66 14.41 5.75 14.35 5.8 14.26L8.14 10.35C8.17 10.31 8.19 10.26 8.19 10.21C8.2 10.16 8.2 10.11 8.19 10.06C8.17 10.01 8.15 9.96 8.12 9.92C8.09 9.88 8.05 9.84 8.01 9.82Z" fill-opacity="1.000000" fill-rule="nonzero"/><path d="M9.28 9.91C9.25 9.87 9.21 9.83 9.17 9.81C9.12 9.78 9.07 9.77 9.02 9.76C8.92 9.75 8.82 9.78 8.74 9.85C8.65 9.91 8.6 10.01 8.59 10.11C8.58 10.21 8.61 10.31 8.67 10.4L10.04 12.1L8.67 13.81C8.61 13.89 8.58 14 8.59 14.1C8.6 14.2 8.65 14.3 8.74 14.36C8.82 14.43 8.92 14.46 9.02 14.45C9.13 14.43 9.22 14.38 9.28 14.3L10.85 12.35C10.9 12.28 10.93 12.19 10.93 12.1C10.93 12.02 10.9 11.93 10.85 11.86L9.28 9.91Z" fill-opacity="1.000000" fill-rule="nonzero"/><path d="M3.99 14.3C4.05 14.38 4.15 14.43 4.25 14.45C4.35 14.46 4.46 14.43 4.54 14.36C4.62 14.3 4.67 14.2 4.68 14.1C4.69 14 4.66 13.89 4.6 13.81L3.23 12.1L4.6 10.4C4.63 10.36 4.65 10.31 4.67 10.26C4.68 10.21 4.69 10.16 4.68 10.11C4.67 10.06 4.66 10.01 4.63 9.96C4.61 9.92 4.58 9.88 4.54 9.85C4.5 9.81 4.45 9.79 4.4 9.78C4.35 9.76 4.3 9.76 4.25 9.76C4.2 9.77 4.15 9.78 4.1 9.81C4.06 9.83 4.02 9.87 3.99 9.91L2.42 11.86C2.37 11.93 2.34 12.02 2.34 12.1C2.34 12.19 2.37 12.28 2.42 12.35L3.99 14.3Z" fill-opacity="1.000000" fill-rule="nonzero"/></symbol><symbol viewBox="0 0 25 23.4526" id="about-web-development" xmlns="http://www.w3.org/2000/svg"><desc>Created with Pixso.</desc><defs/><path d="M0 0L0 20.52L8.02 20.52L8.02 21.98L6.55 21.98L6.55 23.45L18.44 23.45L18.44 21.98L16.97 21.98L16.97 20.52L25 20.52L25 0L0 0ZM15.51 21.98L9.48 21.98L9.48 20.52L15.51 20.52L15.51 21.98L15.51 21.98ZM23.53 19.05L1.46 19.05L1.46 16.12L23.53 16.12L23.53 19.05L23.53 19.05ZM23.53 14.65L1.46 14.65L1.46 1.46L23.53 1.46L23.53 14.65L23.53 14.65Z" fill-opacity="1.000000" fill-rule="nonzero"/><path d="M9.95 5.41L8.92 4.37L5.23 8.06L8.92 11.74L9.95 10.7L7.31 8.06L9.95 5.41Z" fill-opacity="1.000000" fill-rule="nonzero"/><path d="M16.07 4.37L15.04 5.41L17.68 8.06L15.04 10.7L16.07 11.74L19.76 8.06L16.07 4.37Z" fill-opacity="1.000000" fill-rule="nonzero"/><path d="M10.93 12.19L12.63 3.64L14.06 3.92L12.36 12.47L10.93 12.19Z" fill-opacity="1.000000" fill-rule="evenodd"/></symbol><symbol viewBox="0 0 25 20.5646" id="about-web-ux" xmlns="http://www.w3.org/2000/svg"><desc>Created with Pixso.</desc><defs/><path id="cVector" d="M23.38 0L1.61 0C1.18 0 0.77 0.17 0.47 0.47C0.17 0.77 0 1.18 0 1.61L0 15.32C0 15.75 0.17 16.16 0.47 16.46C0.77 16.76 1.18 16.93 1.61 16.93L9.92 16.93L9.38 18.54L8.06 18.54C7.95 18.54 7.85 18.59 7.77 18.66C7.7 18.74 7.66 18.84 7.66 18.95L7.66 19.75L4.03 19.75C3.92 19.75 3.82 19.8 3.74 19.87C3.67 19.95 3.62 20.05 3.62 20.16C3.62 20.26 3.67 20.37 3.74 20.44C3.82 20.52 3.92 20.56 4.03 20.56L21.77 20.56C21.88 20.56 21.98 20.52 22.05 20.44C22.13 20.37 22.17 20.26 22.17 20.16C22.17 20.05 22.13 19.95 22.05 19.87C21.98 19.8 21.88 19.75 21.77 19.75L17.33 19.75L17.33 18.95C17.33 18.84 17.29 18.74 17.22 18.66C17.14 18.59 17.04 18.54 16.93 18.54L15.61 18.54L15.07 16.93L23.38 16.93C23.81 16.93 24.22 16.76 24.52 16.46C24.82 16.16 24.99 15.75 25 15.32L25 1.61C24.99 1.18 24.82 0.77 24.52 0.47C24.22 0.17 23.81 0 23.38 0ZM16.53 19.35L16.53 19.75L8.46 19.75L8.46 19.35L16.53 19.35ZM10.23 18.54L10.77 16.93L14.22 16.93L14.76 18.54L10.23 18.54ZM24.19 15.32C24.19 15.53 24.1 15.74 23.95 15.89C23.8 16.04 23.6 16.12 23.38 16.12L1.61 16.12C1.39 16.12 1.19 16.04 1.04 15.89C0.89 15.74 0.8 15.53 0.8 15.32L0.8 14.51L24.19 14.51L24.19 15.32ZM6.83 10.08L6.68 13.7L6.21 13.7L6.06 10.08L6.83 10.08ZM6.12 9.27L6.39 7.66L6.51 7.66L6.78 9.27L6.12 9.27ZM6.45 6.85C6.01 6.85 5.64 6.3 5.64 5.64C5.64 5.23 6.06 4.63 6.45 4.2C6.79 4.58 7.25 5.2 7.25 5.64C7.25 6.3 6.88 6.85 6.45 6.85ZM10.83 6.04L10.88 6.14L10.88 6.45L9.27 6.45L9.27 6.14L9.32 6.04L10.83 6.04ZM9.72 5.24L10.08 4.53L10.43 5.24L9.72 5.24ZM10.88 7.25L10.88 13.65C10.88 13.67 10.88 13.69 10.89 13.7L9.27 13.7C9.27 13.69 9.27 13.67 9.27 13.65L9.27 7.25L10.88 7.25ZM14.51 5.64L15.72 5.64L15.72 6.45L15.32 6.45C15.21 6.45 15.11 6.49 15.03 6.56C14.96 6.64 14.91 6.74 14.91 6.85C14.91 6.96 14.96 7.06 15.03 7.14C15.11 7.21 15.21 7.25 15.32 7.25L15.72 7.25L15.72 8.06L14.51 8.06C14.4 8.06 14.3 8.1 14.23 8.18C14.15 8.25 14.11 8.36 14.11 8.46C14.11 8.57 14.15 8.67 14.23 8.75C14.3 8.82 14.4 8.87 14.51 8.87L15.72 8.87L15.72 9.67L15.32 9.67C15.21 9.67 15.11 9.71 15.03 9.79C14.96 9.87 14.91 9.97 14.91 10.08C14.91 10.18 14.96 10.29 15.03 10.36C15.11 10.44 15.21 10.48 15.32 10.48L15.72 10.48L15.72 11.29L14.51 11.29C14.4 11.29 14.3 11.33 14.23 11.4C14.15 11.48 14.11 11.58 14.11 11.69C14.11 11.8 14.15 11.9 14.23 11.97C14.3 12.05 14.4 12.09 14.51 12.09L15.72 12.09L15.72 13.7L12.9 13.7L12.9 4.03L15.72 4.03L15.72 4.83L14.51 4.83C14.4 4.83 14.3 4.88 14.23 4.95C14.15 5.03 14.11 5.13 14.11 5.24C14.11 5.34 14.15 5.45 14.23 5.52C14.3 5.6 14.4 5.64 14.51 5.64ZM19.35 10.48L19.35 13.65C19.35 13.67 19.35 13.69 19.35 13.7L17.73 13.7C17.74 13.69 17.74 13.67 17.74 13.65L17.74 10.48L19.35 10.48ZM17.74 9.67L17.74 9.36L18.54 7.75L19.35 9.36L19.35 9.67L17.74 9.67ZM24.19 13.7L20.15 13.7C20.16 13.69 20.16 13.67 20.16 13.65L20.16 9.27C20.16 9.21 20.14 9.14 20.11 9.09L18.9 6.67C18.87 6.6 18.82 6.55 18.76 6.51C18.69 6.47 18.62 6.45 18.54 6.45C18.47 6.45 18.4 6.47 18.33 6.51C18.27 6.55 18.22 6.6 18.18 6.67L16.97 9.09C16.95 9.14 16.93 9.21 16.93 9.27L16.93 13.65C16.93 13.67 16.93 13.69 16.93 13.7L16.53 13.7L16.53 3.62C16.53 3.52 16.48 3.41 16.41 3.34C16.33 3.26 16.23 3.22 16.12 3.22L12.5 3.22C12.39 3.22 12.29 3.26 12.21 3.34C12.13 3.41 12.09 3.52 12.09 3.62L12.09 13.7L11.69 13.7C11.69 13.69 11.69 13.67 11.69 13.65L11.69 6.04C11.69 5.98 11.67 5.92 11.65 5.86L10.44 3.44C10.4 3.38 10.35 3.32 10.29 3.28C10.22 3.24 10.15 3.22 10.08 3.22C10 3.22 9.93 3.24 9.86 3.28C9.8 3.32 9.75 3.38 9.71 3.44L8.51 5.86C8.48 5.92 8.46 5.98 8.46 6.04L8.46 13.65C8.46 13.67 8.46 13.69 8.47 13.7L7.49 13.7L7.66 9.69C7.66 9.68 7.66 9.67 7.66 9.66L7.66 9.65C7.65 9.64 7.65 9.62 7.65 9.61L7.65 9.61L7.28 7.37C7.75 7.01 8.06 6.37 8.06 5.64C8.06 4.6 6.86 3.46 6.72 3.33C6.65 3.26 6.55 3.22 6.45 3.22C6.34 3.22 6.25 3.26 6.17 3.33C6.03 3.46 4.83 4.6 4.83 5.64C4.83 6.37 5.15 7.01 5.62 7.37L5.24 9.61L5.24 9.61C5.24 9.62 5.24 9.64 5.24 9.65L5.24 9.66C5.24 9.67 5.24 9.68 5.24 9.69L5.4 13.7L0.8 13.7L0.8 1.61C0.8 1.39 0.89 1.19 1.04 1.04C1.19 0.89 1.39 0.8 1.61 0.8L23.38 0.8C23.6 0.8 23.8 0.89 23.95 1.04C24.1 1.19 24.19 1.39 24.19 1.61L24.19 13.7Z" fill-opacity="1.000000" fill-rule="nonzero"/></symbol><symbol id="arrow-rigth" enable-background="new 0 0 512 512" viewBox="0 0 512 512" xmlns="http://www.w3.org/2000/svg"><g><path d="m73.234 244h45.531v24h-45.531z"/><path d="m347.667 148.875-16.889 17.05 78.821 78.075h-269.501v24h269.501l-78.821 78.075 16.889 17.05 108.15-107.125z"/></g></symbol><symbol viewBox="0 0 25 23.4312" id="exp-courses" xmlns="http://www.w3.org/2000/svg"><desc>Created with Pixso.</desc><defs/><path d="M2.92 14.95L1.06 14.54C0.51 15.64 0 16.88 0 18.31C0 19.71 0.49 20.93 1.06 22.07L7.37 20.68L7.37 23.43L9.57 22.33L11.76 23.43L11.76 20.68L18.02 22.07C18.56 20.98 19.09 19.74 19.09 18.31C19.09 18.06 19.07 17.81 19.04 17.57L25 17.57L25 0L2.92 0L2.92 14.95ZM1.9 20.39C1.71 19.89 1.46 19.08 1.46 18.31C1.46 17.53 1.71 16.73 1.9 16.22L7.37 17.43L7.37 19.18L1.9 20.39ZM10.3 21.06L9.57 20.69L8.83 21.06L8.83 17.57L10.3 17.57L10.3 21.06ZM17.19 20.39L11.76 19.18L11.76 17.43L17.19 16.22C17.38 16.73 17.62 17.53 17.62 18.31C17.62 19.08 17.38 19.88 17.19 20.39ZM23.53 1.46L23.53 16.11L18.7 16.11C18.46 15.37 18.27 15.03 18.02 14.54L10.95 16.11L8.18 16.11L4.39 15.27L4.39 1.46L23.53 1.46Z" fill-opacity="1.000000" fill-rule="nonzero"/><path d="M8.83 2.92L19.09 2.92L19.09 4.39L8.83 4.39L8.83 2.92Z" fill-opacity="1.000000" fill-rule="nonzero"/><path d="M5.85 8.78L22.07 8.78L22.07 10.25L5.85 10.25L5.85 8.78Z" fill-opacity="1.000000" fill-rule="nonzero"/><path d="M8.83 11.71L19.09 11.71L19.09 13.18L8.83 13.18L8.83 11.71Z" fill-opacity="1.000000" fill-rule="nonzero"/><path d="M10.3 5.85L11.76 5.85L11.76 7.32L10.3 7.32L10.3 5.85Z" fill-opacity="1.000000" fill-rule="nonzero"/><path d="M13.23 5.85L14.69 5.85L14.69 7.32L13.23 7.32L13.23 5.85Z" fill-opacity="1.000000" fill-rule="nonzero"/><path d="M16.16 5.85L17.62 5.85L17.62 7.32L16.16 7.32L16.16 5.85Z" fill-opacity="1.000000" fill-rule="nonzero"/></symbol><symbol viewBox="0 0 25 25" id="exp-designer" xmlns="http://www.w3.org/2000/svg"><desc>Created with Pixso.</desc><defs><clipPath id="fclip11_2"><rect rx="0.000000" width="24.000000" height="24.000000" transform="translate(0.500000 0.500000)" fill-opacity="0"/></clipPath></defs><rect rx="0.000000" width="24.000000" height="24.000000" transform="translate(0.500000 0.500000)" fill-opacity="0"/><g clip-path="url(#fclip11_2)"><path d="M20.26 19.14L19.61 19.57L21.14 21.87L3.85 21.87L5.67 19.14L15.6 19.14L15.6 18.35L5.46 18.35C5.4 18.35 5.34 18.37 5.28 18.4C5.22 18.43 5.17 18.47 5.14 18.53L2.79 22.04C2.75 22.11 2.73 22.18 2.73 22.26L2.73 23.43C2.73 23.64 2.81 23.84 2.96 23.98C3.1 24.13 3.3 24.21 3.51 24.21L21.48 24.21C21.69 24.21 21.89 24.13 22.03 23.98C22.18 23.84 22.26 23.64 22.26 23.43L22.26 22.26C22.26 22.18 22.24 22.11 22.2 22.04L20.26 19.14ZM3.51 23.43L3.51 22.65L21.48 22.65L21.48 23.43L3.51 23.43Z" fill-opacity="1.000000" fill-rule="nonzero"/><path d="M20.31 0.78L4.68 0.78C4.37 0.78 4.07 0.9 3.85 1.12C3.64 1.34 3.51 1.64 3.51 1.95L3.51 12.1C3.51 12.41 3.64 12.71 3.85 12.93C4.07 13.15 4.37 13.28 4.68 13.28L10.15 13.28L10.15 14.84L8.59 14.84C8.49 14.84 8.39 14.88 8.31 14.95C8.24 15.03 8.2 15.13 8.2 15.23L8.2 16.79C8.2 16.9 8.24 16.99 8.31 17.07C8.39 17.14 8.49 17.18 8.59 17.18L16.4 17.18C16.5 17.18 16.6 17.14 16.68 17.07C16.75 16.99 16.79 16.9 16.79 16.79L16.79 15.23C16.79 15.13 16.75 15.03 16.68 14.95C16.6 14.88 16.5 14.84 16.4 14.84L14.84 14.84L14.84 13.28L20.31 13.28C20.62 13.28 20.92 13.15 21.14 12.93C21.35 12.71 21.48 12.41 21.48 12.1L21.48 1.95C21.48 1.64 21.35 1.34 21.14 1.12C20.92 0.9 20.62 0.78 20.31 0.78ZM16.01 15.62L16.01 16.4L8.98 16.4L8.98 15.62L16.01 15.62ZM10.93 14.84L10.93 13.28L14.06 13.28L14.06 14.84L10.93 14.84ZM20.7 12.1C20.7 12.21 20.66 12.31 20.58 12.38C20.51 12.45 20.41 12.5 20.31 12.5L4.68 12.5C4.58 12.5 4.48 12.45 4.41 12.38C4.33 12.31 4.29 12.21 4.29 12.1L4.29 10.93L20.7 10.93L20.7 12.1ZM20.7 10.15L4.29 10.15L4.29 1.95C4.29 1.84 4.33 1.75 4.41 1.67C4.48 1.6 4.58 1.56 4.68 1.56L20.31 1.56C20.41 1.56 20.51 1.6 20.58 1.67C20.66 1.75 20.7 1.84 20.7 1.95L20.7 10.15Z" fill-opacity="1.000000" fill-rule="nonzero"/><path d="M18.35 11.32L19.14 11.32L19.14 12.1L18.35 12.1L18.35 11.32Z" fill-opacity="1.000000" fill-rule="nonzero"/><path d="M8.98 9.37L10.54 9.37C10.65 9.37 10.74 9.33 10.82 9.26C10.89 9.18 10.93 9.08 10.93 8.98L10.93 8.59L14.06 8.59L14.06 8.98C14.06 9.08 14.1 9.18 14.17 9.26C14.25 9.33 14.34 9.37 14.45 9.37L16.01 9.37C16.11 9.37 16.21 9.33 16.29 9.26C16.36 9.18 16.4 9.08 16.4 8.98L16.4 7.42C16.4 7.31 16.36 7.21 16.29 7.14C16.21 7.07 16.11 7.03 16.01 7.03L15.62 7.03L15.62 4.68L16.01 4.68C16.11 4.68 16.21 4.64 16.29 4.57C16.36 4.49 16.4 4.4 16.4 4.29L16.4 2.73C16.4 2.63 16.36 2.53 16.29 2.45C16.21 2.38 16.11 2.34 16.01 2.34L14.45 2.34C14.34 2.34 14.25 2.38 14.17 2.45C14.1 2.53 14.06 2.63 14.06 2.73L14.06 3.12L10.93 3.12L10.93 2.73C10.93 2.63 10.89 2.53 10.82 2.45C10.74 2.38 10.65 2.34 10.54 2.34L8.98 2.34C8.88 2.34 8.78 2.38 8.7 2.45C8.63 2.53 8.59 2.63 8.59 2.73L8.59 4.29C8.59 4.4 8.63 4.49 8.7 4.57C8.78 4.64 8.88 4.68 8.98 4.68L9.37 4.68L9.37 7.03L8.98 7.03C8.88 7.03 8.78 7.07 8.7 7.14C8.63 7.21 8.59 7.31 8.59 7.42L8.59 8.98C8.59 9.08 8.63 9.18 8.7 9.26C8.78 9.33 8.88 9.37 8.98 9.37ZM15.62 8.59L14.84 8.59L14.84 7.81L15.62 7.81L15.62 8.59ZM14.84 3.12L15.62 3.12L15.62 3.9L14.84 3.9L14.84 3.12ZM9.37 3.12L10.15 3.12L10.15 3.9L9.37 3.9L9.37 3.12ZM10.15 4.68L10.54 4.68C10.65 4.68 10.74 4.64 10.82 4.57C10.89 4.49 10.93 4.4 10.93 4.29L10.93 3.9L14.06 3.9L14.06 4.29C14.06 4.4 14.1 4.49 14.17 4.57C14.25 4.64 14.34 4.68 14.45 4.68L14.84 4.68L14.84 7.03L14.45 7.03C14.34 7.03 14.25 7.07 14.17 7.14C14.1 7.21 14.06 7.31 14.06 7.42L14.06 7.81L10.93 7.81L10.93 7.42C10.93 7.31 10.89 7.21 10.82 7.14C10.74 7.07 10.65 7.03 10.54 7.03L10.15 7.03L10.15 4.68ZM9.37 7.81L10.15 7.81L10.15 8.59L9.37 8.59L9.37 7.81Z" fill-opacity="1.000000" fill-rule="nonzero"/><path d="M8.98 20.31L14.45 20.31L14.45 21.09L8.98 21.09L8.98 20.31Z" fill-opacity="1.000000" fill-rule="nonzero"/><path d="M23.38 14.39L22.28 13.28C22.24 13.24 22.2 13.22 22.15 13.2C22.1 13.18 22.05 13.17 22 13.17C21.95 13.17 21.9 13.18 21.85 13.2C21.8 13.22 21.76 13.24 21.73 13.28L16.48 18.53C16.43 18.57 16.4 18.62 16.38 18.68L16.1 19.51C16.08 19.58 16.08 19.65 16.1 19.72C16.11 19.79 16.15 19.86 16.2 19.91L15.65 20.46L16.2 21.01L16.75 20.46C16.79 20.5 16.83 20.53 16.88 20.55C16.93 20.57 16.98 20.58 17.03 20.58C17.07 20.58 17.11 20.57 17.15 20.56L17.98 20.28C18.04 20.26 18.09 20.23 18.13 20.19L23.38 14.94C23.45 14.86 23.5 14.76 23.5 14.66C23.5 14.56 23.45 14.46 23.38 14.39ZM17.65 19.57L17.14 19.74L16.92 19.53L17.09 19.01L20.89 15.21L21.45 15.76L17.65 19.57ZM22 15.21L21.45 14.66L22 14.11L22.55 14.66L22 15.21Z" fill-opacity="1.000000" fill-rule="nonzero"/></g></symbol><symbol viewBox="0 0 24.1667 25" id="exp-front-end" xmlns="http://www.w3.org/2000/svg"><desc>Created with Pixso.</desc><defs/><path id="gVector" d="M21.66 0L2.5 0C1.11 0 0 1.11 0 2.5L0 10.67L0 10.68L0 15.41L0 16.66C0 18.04 1.11 19.16 2.5 19.16L7.65 19.16L5.99 22.5L3.75 22.5C3.05 22.5 2.5 23.05 2.5 23.75C2.5 24.44 3.05 25 3.75 25L20.41 25C21.1 25 21.66 24.44 21.66 23.75C21.66 23.05 21.1 22.5 20.41 22.5L18.17 22.5L16.5 19.16L21.66 19.16C23.04 19.16 24.16 18.04 24.16 16.66L24.16 2.5C24.16 1.11 23.04 0 21.66 0ZM0.83 5.86L1.78 6.98C1.85 7.08 1.97 7.13 2.09 7.13L3.37 7.13C3.49 7.13 3.61 7.08 3.69 6.98L4.64 5.86L5.57 6.16L5.67 7.63C5.68 7.75 5.75 7.86 5.85 7.94L6.88 8.69C6.98 8.76 7.1 8.78 7.22 8.75L8.65 8.4L9.23 9.19L8.45 10.44C8.39 10.55 8.37 10.68 8.41 10.79L8.81 12.01C8.84 12.12 8.93 12.22 9.05 12.26L10.41 12.82L10.41 13.8L9.04 14.36C8.93 14.4 8.84 14.5 8.81 14.61L8.68 15L6.28 15C7.21 13.04 6.39 10.7 4.43 9.76C3.28 9.22 1.94 9.26 0.83 9.88L0.83 5.86ZM0.83 10.87C2.18 9.82 4.12 10.06 5.17 11.41C5.98 12.45 6.05 13.89 5.33 15L0.83 15L0.83 10.87ZM20.41 23.33C20.64 23.33 20.83 23.51 20.83 23.75C20.83 23.98 20.64 24.16 20.41 24.16L3.75 24.16C3.51 24.16 3.33 23.98 3.33 23.75C3.33 23.51 3.51 23.33 3.75 23.33L20.41 23.33ZM17.24 22.5L6.92 22.5L8.59 19.16L15.57 19.16L17.24 22.5ZM23.33 16.66C23.33 17.58 22.58 18.33 21.66 18.33L2.5 18.33C1.57 18.33 0.83 17.58 0.83 16.66L0.83 15.83L5.55 15.83L5.55 15.83L23.33 15.83L23.33 16.66ZM23.33 15L9.68 15L10.99 14.47C11.14 14.4 11.24 14.25 11.25 14.08L11.25 12.54C11.25 12.37 11.14 12.21 10.99 12.15L9.54 11.56L9.26 10.72L10.09 9.4C10.18 9.25 10.17 9.07 10.07 8.93L9.16 7.68C9.06 7.54 8.89 7.48 8.73 7.52L7.21 7.9L6.5 7.38L6.39 5.82C6.37 5.65 6.26 5.51 6.1 5.45L4.63 4.98C4.47 4.93 4.29 4.98 4.18 5.11L3.18 6.3L2.29 6.3L1.29 5.11C1.18 4.98 1 4.93 0.84 4.98L0.83 4.98L0.83 2.5C0.83 1.57 1.57 0.83 2.5 0.83L21.66 0.83C22.58 0.83 23.33 1.57 23.33 2.5L23.33 15Z" fill-opacity="1.000000" fill-rule="nonzero"/></symbol><symbol viewBox="0 0 19.7864 25" id="exp-university" xmlns="http://www.w3.org/2000/svg"><desc>Created with Pixso.</desc><defs/><path d="M17.11 16.33L15.64 15.9L12.45 13.81L12.45 13.33C13.37 12.64 14 11.57 14.12 10.35C14.59 10.28 14.94 9.87 14.94 9.39L14.94 8.07C14.94 8.07 14.94 8.06 14.94 8.06L14.94 6.4C15.13 6.26 15.24 6.05 15.24 5.81L15.24 4.28L17.45 3.91C17.81 3.85 18.07 3.56 18.09 3.19C18.12 2.83 17.9 2.51 17.55 2.39L10.12 0.03C9.97 -0.02 9.81 -0.02 9.65 0.03L2.22 2.39C1.87 2.51 1.66 2.83 1.68 3.19C1.7 3.43 1.81 3.63 1.98 3.76L1.98 5.75L1.96 5.75C1.54 5.75 1.2 6.09 1.2 6.51L1.2 7.5L0.71 10.37C0.63 10.87 1.01 11.32 1.52 11.32L3.18 11.32C3.68 11.32 4.06 10.87 3.98 10.37L3.49 7.5L3.49 6.51C3.49 6.09 3.15 5.75 2.73 5.75L2.71 5.75L2.71 3.97L4.53 4.28L4.53 5.81C4.53 6.05 4.65 6.26 4.83 6.39L4.84 8.08L4.84 9.39C4.84 9.87 5.19 10.28 5.65 10.35C5.77 11.57 6.41 12.64 7.33 13.33L7.33 13.81L4.14 15.9L2.67 16.33C1.1 16.79 9.15e-5 18.23 9.15e-5 19.9L9.15e-5 20.99C9.15e-5 21.2 0.16 21.36 0.36 21.36C0.56 21.36 0.73 21.2 0.73 20.99L0.73 19.9C0.73 18.58 1.61 17.4 2.88 17.03L4.24 16.63L9.7 19.87C9.81 19.94 9.96 19.94 10.08 19.87L15.53 16.63L16.9 17.03C18.16 17.4 19.05 18.58 19.05 19.9L19.05 23.44C19.05 23.89 18.68 24.26 18.23 24.26L16.61 24.26L16.61 22.68C16.61 22.48 16.45 22.32 16.25 22.32C16.04 22.32 15.88 22.48 15.88 22.68L15.88 24.26L3.9 24.26L3.9 22.68C3.9 22.48 3.73 22.32 3.53 22.32C3.33 22.32 3.16 22.48 3.16 22.68L3.16 24.26L1.55 24.26C1.1 24.26 0.73 23.89 0.73 23.44L0.73 22.71C0.73 22.5 0.56 22.34 0.36 22.34C0.16 22.34 0 22.5 0 22.71L0 23.44C0 24.3 0.69 25 1.55 25L18.23 25C19.08 25 19.78 24.3 19.78 23.44L19.78 19.9C19.78 18.27 18.71 16.8 17.11 16.33ZM3.18 10.59L1.52 10.59C1.47 10.59 1.43 10.54 1.44 10.49L1.88 7.89L2.81 7.89L3.26 10.49C3.27 10.54 3.23 10.59 3.18 10.59ZM2.76 6.51L2.76 7.16L1.94 7.16L1.94 6.51C1.94 6.49 1.95 6.48 1.96 6.48L2.73 6.48C2.75 6.48 2.76 6.49 2.76 6.51ZM8.58 18.22L8.72 18.44L4.99 16.22L7.36 14.67C7.47 15.93 7.88 17.15 8.58 18.22ZM8.58 16.64C9.44 16.76 10.34 16.76 11.2 16.64C11.03 17.05 10.83 17.44 10.58 17.82L9.89 18.89L9.19 17.82C8.95 17.44 8.74 17.05 8.58 16.64ZM11.2 18.22C11.89 17.15 12.31 15.93 12.42 14.67L14.79 16.22L11.05 18.44L11.2 18.22ZM13.34 6.53L14.21 6.53L14.21 7.71L13.78 7.71C13.54 7.71 13.34 7.51 13.34 7.27L13.34 6.53L13.34 6.53ZM2.45 3.09L9.87 0.73C9.88 0.73 9.89 0.73 9.9 0.73L17.33 3.09C17.34 3.1 17.37 3.1 17.36 3.14C17.36 3.18 17.34 3.18 17.32 3.19L14.87 3.6L13.95 3.49C13.74 3.47 13.56 3.61 13.54 3.81C13.51 4.01 13.65 4.19 13.86 4.22L14.51 4.3L14.51 5.8L5.27 5.8L5.27 4.3L9.06 3.83C9.61 3.76 10.17 3.76 10.72 3.83L12.15 4.01C12.35 4.03 12.54 3.89 12.56 3.69C12.59 3.49 12.44 3.3 12.24 3.28L10.81 3.1C10.2 3.03 9.58 3.03 8.97 3.1L4.91 3.6L2.45 3.19C2.44 3.18 2.41 3.18 2.41 3.14C2.41 3.1 2.43 3.1 2.45 3.09ZM5.57 7.71L5.57 6.53L6.44 6.53L6.44 7.27C6.44 7.51 6.24 7.71 6 7.71L5.57 7.71L5.57 7.71ZM6.37 10.16C6.35 9.86 6.11 9.63 5.81 9.63C5.68 9.63 5.57 9.52 5.57 9.39L5.57 8.44L6 8.44C6.64 8.44 7.17 7.92 7.17 7.27L7.17 6.53L12.61 6.53L12.61 7.27C12.61 7.92 13.13 8.44 13.78 8.44L14.21 8.44L14.21 9.39C14.21 9.52 14.1 9.63 13.97 9.63C13.67 9.63 13.42 9.86 13.4 10.16C13.29 12.01 11.74 13.46 9.89 13.46C8.03 13.46 6.49 12.01 6.37 10.16ZM9.89 14.19C10.54 14.19 11.16 14.04 11.71 13.78L11.71 14.01C11.71 14.64 11.63 15.25 11.47 15.85C10.47 16.04 9.35 16.05 8.31 15.85C8.15 15.25 8.06 14.64 8.06 14.01C8.06 14 8.06 14 8.06 13.99C8.06 13.99 8.06 13.98 8.06 13.98L8.06 13.78C8.62 14.04 9.24 14.19 9.89 14.19Z" fill-opacity="1.000000" fill-rule="nonzero"/></symbol><symbol id="github" viewBox="0 0 438.549 438.549" style="enable-background:new 0 0 438.549 438.549" xml:space="preserve" xmlns="http://www.w3.org/2000/svg"><g><path d="M409.132,114.573c-19.608-33.596-46.205-60.194-79.798-79.8C295.736,15.166,259.057,5.365,219.271,5.365   c-39.781,0-76.472,9.804-110.063,29.408c-33.596,19.605-60.192,46.204-79.8,79.8C9.803,148.168,0,184.854,0,224.63   c0,47.78,13.94,90.745,41.827,128.906c27.884,38.164,63.906,64.572,108.063,79.227c5.14,0.954,8.945,0.283,11.419-1.996   c2.475-2.282,3.711-5.14,3.711-8.562c0-0.571-0.049-5.708-0.144-15.417c-0.098-9.709-0.144-18.179-0.144-25.406l-6.567,1.136   c-4.187,0.767-9.469,1.092-15.846,1c-6.374-0.089-12.991-0.757-19.842-1.999c-6.854-1.231-13.229-4.086-19.13-8.559   c-5.898-4.473-10.085-10.328-12.56-17.556l-2.855-6.57c-1.903-4.374-4.899-9.233-8.992-14.559   c-4.093-5.331-8.232-8.945-12.419-10.848l-1.999-1.431c-1.332-0.951-2.568-2.098-3.711-3.429c-1.142-1.331-1.997-2.663-2.568-3.997   c-0.572-1.335-0.098-2.43,1.427-3.289c1.525-0.859,4.281-1.276,8.28-1.276l5.708,0.853c3.807,0.763,8.516,3.042,14.133,6.851   c5.614,3.806,10.229,8.754,13.846,14.842c4.38,7.806,9.657,13.754,15.846,17.847c6.184,4.093,12.419,6.136,18.699,6.136   c6.28,0,11.704-0.476,16.274-1.423c4.565-0.952,8.848-2.383,12.847-4.285c1.713-12.758,6.377-22.559,13.988-29.41   c-10.848-1.14-20.601-2.857-29.264-5.14c-8.658-2.286-17.605-5.996-26.835-11.14c-9.235-5.137-16.896-11.516-22.985-19.126   c-6.09-7.614-11.088-17.61-14.987-29.979c-3.901-12.374-5.852-26.648-5.852-42.826c0-23.035,7.52-42.637,22.557-58.817   c-7.044-17.318-6.379-36.732,1.997-58.24c5.52-1.715,13.706-0.428,24.554,3.853c10.85,4.283,18.794,7.952,23.84,10.994   c5.046,3.041,9.089,5.618,12.135,7.708c17.705-4.947,35.976-7.421,54.818-7.421s37.117,2.474,54.823,7.421l10.849-6.849   c7.419-4.57,16.18-8.758,26.262-12.565c10.088-3.805,17.802-4.853,23.134-3.138c8.562,21.509,9.325,40.922,2.279,58.24   c15.036,16.18,22.559,35.787,22.559,58.817c0,16.178-1.958,30.497-5.853,42.966c-3.9,12.471-8.941,22.457-15.125,29.979   c-6.191,7.521-13.901,13.85-23.131,18.986c-9.232,5.14-18.182,8.85-26.84,11.136c-8.662,2.286-18.415,4.004-29.263,5.146   c9.894,8.562,14.842,22.077,14.842,40.539v60.237c0,3.422,1.19,6.279,3.572,8.562c2.379,2.279,6.136,2.95,11.276,1.995   c44.163-14.653,80.185-41.062,108.068-79.226c27.88-38.161,41.825-81.126,41.825-128.906   C438.536,184.851,428.728,148.168,409.132,114.573z"/></g><g/><g/><g/><g/><g/><g/><g/><g/><g/><g/><g/><g/><g/><g/><g/></symbol><symbol viewBox="0 0 32 32" id="telegram" xmlns="http://www.w3.org/2000/svg"><path d="M16 0.5c-8.563 0-15.5 6.938-15.5 15.5s6.938 15.5 15.5 15.5c8.563 0 15.5-6.938 15.5-15.5s-6.938-15.5-15.5-15.5zM23.613 11.119l-2.544 11.988c-0.188 0.85-0.694 1.056-1.4 0.656l-3.875-2.856-1.869 1.8c-0.206 0.206-0.381 0.381-0.781 0.381l0.275-3.944 7.181-6.488c0.313-0.275-0.069-0.431-0.482-0.156l-8.875 5.587-3.825-1.194c-0.831-0.262-0.85-0.831 0.175-1.231l14.944-5.763c0.694-0.25 1.3 0.169 1.075 1.219z"/></symbol><symbol viewBox="0 0 48 48" id="whatsapp" xmlns="http://www.w3.org/2000/svg"><path fill-rule="evenodd" clip-rule="evenodd" d="M24 48C10.7452 48 0 37.2548 0 24C0 10.7452 10.7452 0 24 0C37.2548 0 48 10.7452 48 24C48 37.2548 37.2548 48 24 48ZM24.7911 37.3525C32.6595 37.3493 39.059 30.9483 39.0621 23.0815C39.0637 19.2683 37.5806 15.6828 34.8862 12.9854C32.1918 10.2879 28.6086 8.80165 24.7909 8.8C16.9248 8.8 10.5228 15.2017 10.5196 23.0702C10.5186 25.5855 11.1757 28.0405 12.4246 30.2048L10.4 37.6L17.9653 35.6155C20.0498 36.7524 22.3967 37.3517 24.7852 37.3525H24.7911Z"/><path fill-rule="evenodd" clip-rule="evenodd" d="M18.3159 33.0319L13.8265 34.2096L15.0248 29.8324L14.7428 29.3836C13.5554 27.4951 12.9283 25.3124 12.9292 23.0711C12.9318 16.5311 18.2529 11.2104 24.7958 11.2104C27.964 11.2115 30.9422 12.4469 33.1817 14.689C35.4212 16.9311 36.6538 19.9112 36.6526 23.0807C36.6499 29.6212 31.3289 34.9424 24.7911 34.9424H24.7863C22.6578 34.9415 20.5702 34.3697 18.749 33.289L18.3159 33.0319ZM31.9808 26.4751C31.8917 26.3264 31.654 26.2372 31.2974 26.0586C30.9408 25.8801 29.1877 25.0176 28.8608 24.8985C28.534 24.7795 28.2961 24.7201 28.0585 25.0769C27.8208 25.4339 27.1374 26.2372 26.9294 26.4751C26.7214 26.7131 26.5133 26.7429 26.1569 26.5644C25.8003 26.3859 24.6513 26.0094 23.2893 24.7945C22.2292 23.8489 21.5135 22.6813 21.3055 22.3243C21.0975 21.9673 21.2834 21.7743 21.4619 21.5965C21.6223 21.4367 21.8185 21.1799 21.9968 20.9718C22.1751 20.7636 22.2345 20.6148 22.3533 20.377C22.4722 20.1389 22.4128 19.9307 22.3236 19.7522C22.2345 19.5737 21.5213 17.8185 21.2242 17.1045C20.9347 16.4092 20.6408 16.5034 20.4219 16.4924C20.2141 16.482 19.9762 16.4798 19.7385 16.4798C19.5008 16.4798 19.1144 16.569 18.7876 16.926C18.4607 17.283 17.5395 18.1457 17.5395 19.9008C17.5395 21.656 18.8173 23.3516 18.9956 23.5896C19.1739 23.8276 21.51 27.4293 25.0871 28.9739C25.9379 29.3413 26.602 29.5607 27.12 29.725C27.9742 29.9965 28.7516 29.9582 29.3659 29.8663C30.0511 29.764 31.4756 29.0038 31.7729 28.1709C32.0699 27.3378 32.0699 26.6238 31.9808 26.4751Z"/></symbol></svg>