<svg width="24.166687" height="25.000000" viewBox="0 0 24.1667 25" fill="none" xmlns="http://www.w3.org/2000/svg" xmlns:xlink="http://www.w3.org/1999/xlink">
	<desc>
			Created with Pixso.
	</desc>
	<defs/>
	<path id="Vector" d="M21.66 0L2.5 0C1.11 0 0 1.11 0 2.5L0 10.67L0 10.68L0 15.41L0 16.66C0 18.04 1.11 19.16 2.5 19.16L7.65 19.16L5.99 22.5L3.75 22.5C3.05 22.5 2.5 23.05 2.5 23.75C2.5 24.44 3.05 25 3.75 25L20.41 25C21.1 25 21.66 24.44 21.66 23.75C21.66 23.05 21.1 22.5 20.41 22.5L18.17 22.5L16.5 19.16L21.66 19.16C23.04 19.16 24.16 18.04 24.16 16.66L24.16 2.5C24.16 1.11 23.04 0 21.66 0ZM0.83 5.86L1.78 6.98C1.85 7.08 1.97 7.13 2.09 7.13L3.37 7.13C3.49 7.13 3.61 7.08 3.69 6.98L4.64 5.86L5.57 6.16L5.67 7.63C5.68 7.75 5.75 7.86 5.85 7.94L6.88 8.69C6.98 8.76 7.1 8.78 7.22 8.75L8.65 8.4L9.23 9.19L8.45 10.44C8.39 10.55 8.37 10.68 8.41 10.79L8.81 12.01C8.84 12.12 8.93 12.22 9.05 12.26L10.41 12.82L10.41 13.8L9.04 14.36C8.93 14.4 8.84 14.5 8.81 14.61L8.68 15L6.28 15C7.21 13.04 6.39 10.7 4.43 9.76C3.28 9.22 1.94 9.26 0.83 9.88L0.83 5.86ZM0.83 10.87C2.18 9.82 4.12 10.06 5.17 11.41C5.98 12.45 6.05 13.89 5.33 15L0.83 15L0.83 10.87ZM20.41 23.33C20.64 23.33 20.83 23.51 20.83 23.75C20.83 23.98 20.64 24.16 20.41 24.16L3.75 24.16C3.51 24.16 3.33 23.98 3.33 23.75C3.33 23.51 3.51 23.33 3.75 23.33L20.41 23.33ZM17.24 22.5L6.92 22.5L8.59 19.16L15.57 19.16L17.24 22.5ZM23.33 16.66C23.33 17.58 22.58 18.33 21.66 18.33L2.5 18.33C1.57 18.33 0.83 17.58 0.83 16.66L0.83 15.83L5.55 15.83L5.55 15.83L23.33 15.83L23.33 16.66ZM23.33 15L9.68 15L10.99 14.47C11.14 14.4 11.24 14.25 11.25 14.08L11.25 12.54C11.25 12.37 11.14 12.21 10.99 12.15L9.54 11.56L9.26 10.72L10.09 9.4C10.18 9.25 10.17 9.07 10.07 8.93L9.16 7.68C9.06 7.54 8.89 7.48 8.73 7.52L7.21 7.9L6.5 7.38L6.39 5.82C6.37 5.65 6.26 5.51 6.1 5.45L4.63 4.98C4.47 4.93 4.29 4.98 4.18 5.11L3.18 6.3L2.29 6.3L1.29 5.11C1.18 4.98 1 4.93 0.84 4.98L0.83 4.98L0.83 2.5C0.83 1.57 1.57 0.83 2.5 0.83L21.66 0.83C22.58 0.83 23.33 1.57 23.33 2.5L23.33 15Z" fill="#000000" fill-opacity="1.000000" fill-rule="nonzero"/>
</svg>
