<svg width="17" height="20" viewBox="0 0 17 20" fill="none" xmlns="http://www.w3.org/2000/svg">
<path d="M16.1207 4.84883H0.879254C0.395687 4.84883 0 4.43974 0 3.9398C0 3.43985 0.395687 3.03076 0.879254 3.03076H16.1207C16.6043 3.03076 17 3.43985 17 3.9398C17 4.43974 16.6043 4.84883 16.1207 4.84883ZM0.879254 3.6368C0.718067 3.6368 0.586171 3.77316 0.586171 3.93981C0.586171 4.10646 0.718067 4.24282 0.879254 4.24282H16.1207C16.2819 4.24282 16.4138 4.10646 16.4138 3.93981C16.4138 3.77316 16.2819 3.6368 16.1207 3.6368H0.879254Z" fill="#828282"/>
<path d="M12.0292 20H4.97124C3.20094 20 1.75879 18.5089 1.75879 16.6787V5.7576C1.75879 5.59095 1.89068 5.45459 2.05187 5.45459C2.21306 5.45459 2.34496 5.59095 2.34496 5.7576V16.6787C2.34496 18.1757 3.5232 19.3938 4.97111 19.3938H12.029C13.477 19.3938 14.6552 18.1757 14.6552 16.6787L14.6553 5.7576C14.6553 5.59095 14.7872 5.45459 14.9484 5.45459C15.1096 5.45459 15.2415 5.59095 15.2415 5.7576V16.6787C15.2417 18.509 13.7995 20 12.0292 20H12.0292Z" fill="#828282"/>
<path d="M12.8968 3.63644C12.7883 3.63644 12.6857 3.57587 12.633 3.46979L11.2496 0.606169H5.75107L4.36763 3.46979C4.29432 3.61833 4.11856 3.6789 3.97488 3.60616C3.83121 3.53036 3.77262 3.34865 3.84299 3.20011L5.30858 0.169846C5.35539 0.0636154 5.45799 0 5.56942 0H11.4312C11.5427 0 11.6453 0.0636154 11.6921 0.166647L13.1577 3.19691C13.231 3.34544 13.1724 3.52716 13.0258 3.60296C12.9847 3.62731 12.9407 3.63644 12.8968 3.63644L12.8968 3.63644Z" fill="#828282"/>
<path d="M8.50045 17.8787C7.85273 17.8787 7.32812 17.3363 7.32812 16.6667V8.18176C7.32812 7.5121 7.85277 6.96973 8.50045 6.96973C9.14814 6.96973 9.67278 7.51214 9.67278 8.18176V16.6667C9.67278 17.3364 9.14814 17.8788 8.50045 17.8788V17.8787ZM8.50045 7.57549C8.17807 7.57549 7.91427 7.84822 7.91427 8.18153V16.6664C7.91427 16.9997 8.17806 17.2725 8.50045 17.2725C8.82284 17.2725 9.08663 16.9997 9.08663 16.6664V8.18153C9.08663 7.84823 8.82284 7.57549 8.50045 7.57549Z" fill="#828282"/>
<path d="M4.98302 17.8787C4.3353 17.8787 3.81069 17.3363 3.81069 16.6667L3.81055 8.18176C3.81055 7.5121 4.33519 6.96973 4.98287 6.96973C5.63056 6.96973 6.1552 7.51214 6.1552 8.18176V16.6667C6.15535 17.3364 5.63071 17.8788 4.98302 17.8788L4.98302 17.8787ZM4.98302 7.57549C4.66064 7.57549 4.39684 7.84822 4.39684 8.18153V16.6664C4.39684 16.9997 4.66063 17.2725 4.98302 17.2725C5.3054 17.2725 5.5692 16.9997 5.5692 16.6664V8.18153C5.5692 7.84823 5.30541 7.57549 4.98302 7.57549Z" fill="#828282"/>
<path d="M12.0171 17.8787C11.3693 17.8787 10.8447 17.3363 10.8447 16.6667V8.18176C10.8447 7.5121 11.3694 6.96973 12.0171 6.96973C12.6647 6.96973 13.1894 7.51214 13.1894 8.18176V16.6667C13.1895 17.3364 12.6649 17.8788 12.0171 17.8788V17.8787ZM12.0171 7.57549C11.6947 7.57549 11.4309 7.84822 11.4309 8.18153V16.6664C11.4309 16.9997 11.6947 17.2725 12.0171 17.2725C12.3394 17.2725 12.6032 16.9997 12.6032 16.6664L12.6034 8.18153C12.6034 7.84823 12.3396 7.57549 12.017 7.57549H12.0171Z" fill="#828282"/>
</svg>
