<svg width="75" height="75" fill="none" xmlns="http://www.w3.org/2000/svg"><path fill-rule="evenodd" clip-rule="evenodd" d="M36.993.247a37.892 37.892 0 0137.892 31.45 13.414 13.414 0 00-7.578 1.061c2.536-.028 5.07.15 7.578.53a29.024 29.024 0 010 5.154 37.437 37.437 0 01-74.799 1.06s4.472-1.136 5.305-1.44a11.215 11.215 0 01-5.38-.908 38.574 38.574 0 014.925-19.78 38.725 38.725 0 015.987-2.122c-4.168.455-5.077.606-4.85 0A34.028 34.028 0 0136.993.095v.152z" fill="url(#paint0_linear_111_227)"/><path fill-rule="evenodd" clip-rule="evenodd" d="M36.993.626a36.3 36.3 0 0136.452 30.769 16.52 16.52 0 00-7.578 1.667 62.69 62.69 0 018.109 0v3.713A36.376 36.376 0 011.602 39.2l7.048-2.122a16.3 16.3 0 01-7.579-.53v-.455A36.452 36.452 0 015.391 17.3l8.336-2.653-6.896.834A33.345 33.345 0 0137.145.323l-.152.303z" fill="url(#paint1_radial_111_227)"/><path style="mix-blend-mode:multiply" opacity=".6" fill-rule="evenodd" clip-rule="evenodd" d="M1.45 30.182a75.78 75.78 0 009.018-2.804 82.225 82.225 0 0114.627-4.092 245.917 245.917 0 0138.953-7.579h3.259a22.743 22.743 0 00-1.668-2.122 64.86 64.86 0 00-10.155 0c-13.64 1.213-29.631 4.775-44.258 7.124l-7.578 1.364a34.557 34.557 0 00-1.895 7.579l-.303.53z" fill="url(#paint2_radial_111_227)"/><path style="mix-blend-mode:multiply" opacity=".6" fill-rule="evenodd" clip-rule="evenodd" d="M23.655 42.385a121.861 121.861 0 00-13.262 5.608 20.462 20.462 0 00-5.457 3.789A37.89 37.89 0 009.56 58.83l3.486 1.591c3.486 1.516 7.124 2.956 10.383 4.623a73.51 73.51 0 019.7 6.063 33.05 33.05 0 003.865 0 40.311 40.311 0 006.139-.455l-7.124-5.305a130.128 130.128 0 01-11.823-9.094 5.457 5.457 0 01-1.06-1.819 4.927 4.927 0 010-2.046 4.48 4.48 0 01.53-1.895 9.017 9.017 0 01.53-1.742 44.786 44.786 0 0111.217-6.67A166.721 166.721 0 0154.5 34.958a39.336 39.336 0 0110.762-1.895 16.522 16.522 0 017.578-1.667c0-1.364-.455-2.728-.758-4.017a34.936 34.936 0 00-9.776 0A272.828 272.828 0 0023.05 42.536l.606-.151z" fill="url(#paint3_radial_111_227)"/><path d="M71.4 48.825h-.834a15.16 15.16 0 00-2.653 0 4.396 4.396 0 00-1.667.606 9.249 9.249 0 00-1.44.91c-.49.363-.946.768-1.364 1.212-.4.417-.755.874-1.061 1.364a9.393 9.393 0 00-.758 1.516 7.58 7.58 0 000 1.818 4.469 4.469 0 000 1.668c.212.528.55.996.985 1.364.347.32.728.599 1.137.833l1.061-1.136a7.583 7.583 0 01-1.743-.985 2.804 2.804 0 01-.758-1.895c.056-.834.316-1.64.758-2.35a7.58 7.58 0 016.517-3.41c.324-.077.662-.077.986 0a18.9 18.9 0 00.758-1.819l.075.304zm2.197-9.095h-.606a44.713 44.713 0 00-25.085 7.579c-2.88 1.97-4.244 3.713-4.471 5.456a6.14 6.14 0 001.667 5.381 67.222 67.222 0 009.397 9.549l-2.576 1.212a74.805 74.805 0 01-9.17-9.17 9.019 9.019 0 01-3.41-7.199c.606-4.168 9.245-8.564 13.868-10.458a50.17 50.17 0 0120.234-4.244v1.97l.152-.076zm0-5.077a70.177 70.177 0 00-37.058 8.715 33.422 33.422 0 00-9.852 6.442 3.865 3.865 0 000 5.684 92.68 92.68 0 0010.685 8.715c3.183 2.273 5.608 4.395 8.033 6.214l-2.197.455-7.124-5.305a130.122 130.122 0 01-11.898-9.322 5.458 5.458 0 01-1.061-1.818 4.926 4.926 0 010-2.047c.034-.663.215-1.31.53-1.894a9.023 9.023 0 01.53-1.743 44.79 44.79 0 0111.217-6.67 166.728 166.728 0 0119.097-7.123 41.908 41.908 0 0118.87-1.516c-.037.404-.037.81 0 1.213h.228zm-1.06-7.578a34.936 34.936 0 00-9.777 0A272.827 272.827 0 0023.504 42.23a121.852 121.852 0 00-13.264 5.61 19.248 19.248 0 00-5.456 3.79c0-.91-.834-1.743-1.137-2.653a96.325 96.325 0 0118.416-8.488c4.926-1.894 9.852-3.94 15.157-5.91a106.1 106.1 0 0125.842-8.413 67.12 67.12 0 019.549 0v.985l-.076-.075zm-63.13 31.45l3.487 1.591c3.486 1.516 7.124 2.956 10.382 4.623a73.517 73.517 0 019.7 6.063 32.512 32.512 0 01-6.138-1.137l-5.684-2.955c-1.894-.985-3.865-1.82-5.91-2.729a36.149 36.149 0 01-5.836-5.456zm61.386-36.3a58.123 58.123 0 00-12.353.984 145.504 145.504 0 00-23.569 7.579C23.958 34.653 12.818 38.366 1.678 41.7a15.158 15.158 0 010-1.819c11.443-3.334 22.735-7.124 33.875-11.14a126.263 126.263 0 0122.736-6.745c3.984-.622 8.02-.85 12.05-.682l.454.91zM1.45 30.181a75.784 75.784 0 009.019-2.804 82.224 82.224 0 0114.626-4.093 245.918 245.918 0 0138.953-7.578h3.259l.985 1.364a39.63 39.63 0 00-4.244 0 101.168 101.168 0 00-24.705 5.153c-4.775 1.289-9.322 2.501-14.172 3.41a80.404 80.404 0 00-14.475 4.017 71.25 71.25 0 01-9.625 2.88 10.838 10.838 0 010-2.198l.38-.151zM4.33 19.95l6.745-1.289c14.626-2.273 30.314-4.85 44.334-6.062a86.603 86.603 0 018.867 0c.493.468.95.975 1.364 1.515a64.86 64.86 0 00-10.155 0c-13.642 1.213-29.632 4.775-44.258 7.124l-7.579 1.364c0-.833.606-1.591.985-2.425l-.303-.227zm3.79-6.29c3.789-.53 7.578-.91 11.291-1.061 3.714-.152 9.322-.455 14.02-1.061l8.716-1.213a140.8 140.8 0 0117.96-1.743l1.289.985c-13.944 0-25.843 4.547-41.909 4.775-3.94 0-8.488.682-12.732 1.212.406-.665.862-1.299 1.364-1.894zm4.016-4.396a210.377 210.377 0 0027.207-2.198c5.304-.757 10.61-1.44 15.838-1.743.835.435 1.644.916 2.426 1.44-6.063.189-12.11.72-18.113 1.592a194.911 194.911 0 01-29.632 2.728c.65-.74 1.36-1.423 2.122-2.046l.152.227zm6.593-4.698c5.23 0 10.61-.834 16.218-1.668 3.183-.53 6.29-.985 9.473-1.364l3.638.985c-9.7.986-19.325 2.804-29.026 3.638h-3.334l3.031-1.819v.228zm40.318 59.87a17.743 17.743 0 01-4.548-3.79 7.579 7.579 0 01-2.273-5.987v-.606a14.4 14.4 0 015.078-5.608 23.417 23.417 0 0115.156-4.472v.91c-2.22-.12-4.444.11-6.593.682a24.628 24.628 0 00-7.578 4.016c-3.941 2.956-6.29 5.684-2.653 10.155a17.808 17.808 0 004.32 3.79l-1.137.91h.227z" fill="#B7805C" opacity=".5"/><path style="mix-blend-mode:screen" opacity=".35" fill-rule="evenodd" clip-rule="evenodd" d="M24.186 3.885a.607.607 0 010-.606c0-.682 2.273-1.44 4.168-2.046a35.771 35.771 0 00-9.7 3.334l6.593-.454h-.91l-.151-.228zM22.442 5.78H15.47a33.724 33.724 0 00-3.637 2.88h9.776c-.73.078-1.467.078-2.198 0-3.562 0 0-2.122 1.516-2.501l1.515-.455v.076zm-2.5 5.153H9.787a28.501 28.501 0 00-1.895 2.35c3.79-.53 7.578-.91 11.292-1.061h.985-1.44c-.985 0 0-.986.379-1.213h.834v-.076zm-6.518 3.79L5.24 17.678l-1.137 2.274 6.745-1.289h.833c-1.288 0-2.652-.985-1.364-1.97a17.506 17.506 0 018.64-2.274c-1.744 0-3.638 0-5.533.38v-.076zm-2.955 6.365L2.89 22.377a34.558 34.558 0 00-1.894 7.578 75.78 75.78 0 009.018-2.804l1.213-.455c-2.426.53-5.457.91-6.139 0-.682-.909 0-4.395 1.895-5.001a27.218 27.218 0 013.258-1.061l.228.454zm-1.44 9.095A76.365 76.365 0 011.45 32.38a24.631 24.631 0 000 4.093v.454c2.45.772 5.046.954 7.579.53l2.576-.757c-2.955 0-7.578.606-8.184-1.137-.607-1.743 2.88-3.789 6.214-5.38h-.606zm0 8.942L1.45 41.4a32.361 32.361 0 002.122 7.578 43.496 43.496 0 017.579-3.94c-1.184.328-2.41.48-3.638.454a2.577 2.577 0 01-1.591-4.32 10.23 10.23 0 013.41-2.197l-.303.151zm1.136 8.867A20.463 20.463 0 004.71 51.78a37.894 37.894 0 004.623 7.048l3.486 1.591 6.138 2.653a51.392 51.392 0 01-6.744-4.244c-1.97-1.895-4.623-6.29-3.183-9.018a10.308 10.308 0 012.122-2.35l-.986.53z" fill="url(#paint4_radial_111_227)"/><path style="mix-blend-mode:screen" fill-rule="evenodd" clip-rule="evenodd" d="M4.33 52.54c7.58 13.867 16.976 18.414 33.27 20.005A29.177 29.177 0 014.33 52.54z" fill="url(#paint5_radial_111_227)"/><path style="mix-blend-mode:screen" fill-rule="evenodd" clip-rule="evenodd" d="M7.74 15.48A33.42 33.42 0 0136.993 1.914c2.55.1 5.087.43 7.578.986l3.032 1.515c1.825.284 3.625.715 5.38 1.289A34.86 34.86 0 0168.14 19.269v.682c0 .227 0 0-.53 0h-.228a39.946 39.946 0 00-4.243 0 31.982 31.982 0 00-6.594.758 154.467 154.467 0 00-20.007 7.578 114.815 114.815 0 0121.75-6.29 55.705 55.705 0 0111.368-.985 34.484 34.484 0 013.486 10.307A36.3 36.3 0 0036.69.55 33.345 33.345 0 006.376 15.707l1.364-.227z" fill="url(#paint6_radial_111_227)"/><path fill-rule="evenodd" clip-rule="evenodd" d="M63.593 52.54a30.767 30.767 0 01-26.07 14.247 31.071 31.071 0 01-26.448-14.248 30.315 30.315 0 0052.518 0z" fill="#CA9E67" opacity=".65"/><path opacity=".75" fill-rule="evenodd" clip-rule="evenodd" d="M68.292 32.077A31.45 31.45 0 0037.448 5.022a30.314 30.314 0 00-30.996 30.92c-.04.555-.04 1.112 0 1.667h1.895l-1.895.606a30.996 30.996 0 0061.916-2.122v-2.88a17.27 17.27 0 00-2.804 0c.876-.414 1.79-.744 2.728-.985v-.151z" fill="url(#paint7_linear_111_227)"/><path fill-rule="evenodd" clip-rule="evenodd" d="M6.452 36.85A30.314 30.314 0 0137.448 6.538 31.527 31.527 0 0167.76 32.001 31.45 31.45 0 0036.917 4.946a30.314 30.314 0 00-30.995 30.92v.909l.53.076z" fill="#683C11" opacity=".5"/><path d="M52.106 43.394l-5.544-5.11c-1.192-1.1-1.192-2.886 0-3.985l5.544-5.106c1.192-1.1 1.192-2.885 0-3.984l-2.586-2.384c-1.193-1.1-3.13-1.1-4.322 0l-5.543 5.11c-1.193 1.1-3.13 1.1-4.322 0l-5.543-5.11c-1.193-1.1-3.13-1.1-4.322 0l-2.574 2.384c-1.192 1.1-1.192 2.885 0 3.984l5.544 5.111c1.193 1.1 1.193 2.885 0 3.985l-5.544 5.105c-1.192 1.1-1.192 2.885 0 3.985l2.58 2.384c1.193 1.1 3.13 1.1 4.322 0l5.543-5.111c1.193-1.1 3.13-1.1 4.322 0l5.537 5.11c1.193 1.1 3.13 1.1 4.322 0l2.586-2.383c1.192-1.1 1.192-2.885 0-3.985z" fill="#FFD7B7"/><defs><radialGradient id="paint1_radial_111_227" cx="0" cy="0" r="1" gradientUnits="userSpaceOnUse" gradientTransform="translate(15.622 4.415) scale(77.1484)"><stop stop-color="#F59547"/><stop offset="1" stop-color="#A14C1F"/></radialGradient><radialGradient id="paint2_radial_111_227" cx="0" cy="0" r="1" gradientUnits="userSpaceOnUse" gradientTransform="translate(20.169 33.214) scale(78.5883)"><stop stop-color="#CFA04D"/><stop offset="1" stop-color="#fff"/></radialGradient><radialGradient id="paint3_radial_111_227" cx="0" cy="0" r="1" gradientUnits="userSpaceOnUse" gradientTransform="translate(32.522 73.229) scale(96.8523)"><stop stop-color="#CFA04D"/><stop offset="1" stop-color="#fff"/></radialGradient><radialGradient id="paint4_radial_111_227" cx="0" cy="0" r="1" gradientUnits="userSpaceOnUse" gradientTransform="translate(56.015 46.703) scale(67.0691)"><stop offset=".35"/><stop offset="1" stop-color="#00B875"/></radialGradient><radialGradient id="paint5_radial_111_227" cx="0" cy="0" r="1" gradientUnits="userSpaceOnUse" gradientTransform="translate(14.713 69.742) scale(29.1012)"><stop stop-color="#B0670B"/><stop offset="1"/></radialGradient><radialGradient id="paint6_radial_111_227" cx="0" cy="0" r="1" gradientUnits="userSpaceOnUse" gradientTransform="translate(16.077 6.234) scale(57.1413)"><stop stop-color="#A48A7B"/><stop offset="1" stop-color="#945534"/></radialGradient><linearGradient id="paint0_linear_111_227" x1="37.448" y1="74.288" x2="37.448" y2=".171" gradientUnits="userSpaceOnUse"><stop stop-color="#692705"/><stop offset="1" stop-color="#823B00"/></linearGradient><linearGradient id="paint7_linear_111_227" x1="37.448" y1="66.635" x2="37.448" y2="4.946" gradientUnits="userSpaceOnUse"><stop stop-color="#823B00"/><stop offset="1" stop-color="#692705"/></linearGradient></defs></svg>