<svg width="30" height="30" viewBox="0 0 30 30" fill="none" xmlns="http://www.w3.org/2000/svg">
<path d="M29.5536 0.44678C30.1064 0.999611 30.1457 1.87143 29.672 2.46967L29.5536 2.60289L17.1571 14.9988L29.5536 27.3974C30.1488 27.9926 30.1488 28.9583 29.5536 29.5536C29.0007 30.1064 28.1289 30.1457 27.5307 29.672L27.3975 29.5536L15.001 17.155L2.60296 29.5536C2.00725 30.1488 1.04202 30.1488 0.44678 29.5536C-0.106051 29.0007 -0.145869 28.1289 0.328353 27.5307L0.44678 27.3974L12.8453 14.9989L0.44678 2.60296C-0.148927 2.00725 -0.148927 1.04202 0.44678 0.44678C0.999611 -0.106051 1.87143 -0.145869 2.46967 0.328353L2.6029 0.44678L15.0009 12.8427L27.3974 0.44678C27.9926 -0.148927 28.9583 -0.148927 29.5536 0.44678Z" fill="white"/>
</svg>
