<svg width="20" height="20" viewBox="0 0 20 20" fill="none" xmlns="http://www.w3.org/2000/svg">
<path d="M19.5918 0H4.4898C4.2643 0 4.08163 0.182671 4.08163 0.408163V4.08163H0.408163C0.182671 4.08163 0 4.2643 0 4.4898V19.5918C0 19.7 0.0430482 19.8039 0.11958 19.8804C0.196112 19.9569 0.299977 20 0.408163 20H15.5102C15.6184 20 15.7223 19.957 15.7988 19.8804C15.8753 19.8039 15.9184 19.7 15.9184 19.5918V15.9184H19.5918C19.7 15.9184 19.8039 15.8753 19.8804 15.7988C19.957 15.7223 20 15.6184 20 15.5102V0.408163C20 0.299971 19.957 0.196111 19.8804 0.11958C19.8039 0.0430494 19.7 0 19.5918 0ZM15.102 19.1837H0.816326V4.89796H15.102V19.1837ZM19.1837 15.102H15.9184V4.4898C15.9184 4.3816 15.8753 4.27774 15.7988 4.20121C15.7223 4.12468 15.6184 4.08163 15.5102 4.08163H4.89796V0.816326H19.1837V15.102Z" fill="#828282"/>
</svg>
