<svg width="32" height="32" viewBox="0 0 32 32" fill="none" xmlns="http://www.w3.org/2000/svg">
<path fill-rule="evenodd" clip-rule="evenodd" d="M25.7256 3.25681C26.8839 3.63654 27.873 4.68615 27.967 6.06428C28.125 8.43229 27.4631 10.6083 26.4815 12.716C25.6127 14.5721 24.5635 16.3214 23.3562 17.9598C22.5627 19.0393 21.6977 20.0675 20.8064 21.0745C19.8774 22.1283 18.8733 23.1012 17.8391 24.0356C16.3046 25.4222 14.6536 26.6553 12.8559 27.6878C11.5923 28.4132 10.2797 28.9806 8.85814 29.2793C7.47414 29.5695 6.15032 29.4585 5.0183 28.5028C4.42409 27.9993 4.13826 27.291 4.01039 26.5316C3.71705 24.7737 4.18715 23.1396 4.83026 21.5395C5.72534 19.3123 6.97771 17.3027 8.46325 15.4382C8.76252 15.0627 8.68087 14.6923 8.60243 14.3364C8.57836 14.2272 8.55459 14.1193 8.54222 14.0131C8.51735 13.7959 8.49002 13.5781 8.46266 13.3603C8.40728 12.9192 8.35182 12.4775 8.31657 12.0376C8.30409 11.879 8.28125 11.7204 8.25837 11.5615C8.2123 11.2416 8.16606 10.9205 8.20375 10.5955C8.23388 10.3486 8.08815 10.3486 7.93374 10.3485C7.9147 10.3485 7.89554 10.3485 7.87655 10.348C6.67684 10.3267 5.51473 10.5784 4.36015 10.8814C3.4425 11.1203 2.58503 11.4574 1.84414 12.1016C0.83623 12.9763 0.847512 14.0345 1.47934 15.1011C2.24655 16.3939 3.38985 17.3027 4.55948 18.1859C4.61432 18.2277 4.67095 18.2675 4.72858 18.308C4.93574 18.4535 5.15589 18.6081 5.35302 18.8985C3.91637 18.2371 2.65272 17.5289 1.5884 16.5262C0.787339 15.771 0.129189 14.8707 0.0163633 13.7315C-0.103984 12.5283 0.448862 11.5512 1.36651 10.8344C2.75427 9.74643 4.39776 9.25576 6.09391 8.9315C6.13203 8.92423 6.17015 8.91692 6.20829 8.9096C6.66294 8.82237 7.11883 8.7349 7.59073 8.73096C8.01194 8.7267 8.19246 8.47496 8.20751 8.02696C8.26016 6.41842 8.5159 4.83975 9.04242 3.31654C9.46363 2.10054 10.0955 1.02533 11.235 0.346928C12.4385 -0.365608 14.1158 0.125061 15.0184 0.867464C16.4438 2.03654 17.4855 3.50854 18.3129 5.15121C18.316 5.15715 18.319 5.16304 18.322 5.16889C18.4523 5.42414 18.5433 5.60211 18.9109 5.35602C20.1257 4.54108 21.4006 3.82428 22.8184 3.41894C23.7737 3.14587 24.7289 2.93254 25.7256 3.25681ZM11.4078 26.4808C11.6404 26.3613 11.8732 26.2419 12.1075 26.1262C12.3444 26.011 12.367 25.9726 12.2467 25.6868C11.9082 24.8548 11.4983 24.539 10.5054 24.6585C9.50161 24.7796 8.48066 24.7546 7.45994 24.7296C6.97005 24.7175 6.48022 24.7055 5.99236 24.7097C5.65389 24.7097 5.64636 24.6116 5.76671 24.33C6.47553 22.6968 7.17837 21.0592 7.88103 19.4219C8.14398 18.8092 8.4069 18.1966 8.67009 17.5843C8.89198 17.0681 9.09131 16.5518 8.80548 15.963C7.74492 17.6825 6.7859 19.4275 6.11271 21.3049C5.57867 22.7897 5.07095 24.2916 5.30413 25.9257C5.41319 26.6852 5.86073 27.5342 6.80095 27.739C7.38012 27.867 7.9292 27.7945 8.47453 27.675C9.52139 27.4491 10.4642 26.9652 11.4078 26.4808ZM23.5972 14.5665C23.799 14.2437 23.9998 13.9225 24.2137 13.612C24.3942 13.3518 24.3453 13.1939 24.0219 13.0787C22.7319 12.588 21.4344 12.1272 20.1031 11.7731C18.2076 11.2654 16.3009 10.8472 14.349 10.6083C12.9913 10.4462 11.6412 10.2968 10.276 10.2542C10.024 10.2456 9.95631 10.331 9.96383 10.5742C9.96701 10.6799 9.96902 10.7854 9.97102 10.8908C9.97848 11.2832 9.9859 11.674 10.0541 12.0675C10.1318 12.5084 10.1931 12.9519 10.2544 13.3951C10.3028 13.7455 10.3512 14.0956 10.4076 14.4441C10.6784 16.0953 11.0996 17.7123 11.5509 19.3209C12.0737 21.1811 12.7431 22.9817 13.5216 24.7481C13.6382 25.0126 13.7435 25.034 13.9955 24.8505C15.1613 23.9929 16.2745 23.0713 17.3013 22.0473C17.3183 22.0308 17.3387 22.0148 17.3594 21.9985C17.4301 21.9428 17.5054 21.8836 17.4705 21.7913C17.4268 21.671 17.3133 21.6769 17.2072 21.6824C17.1853 21.6835 17.1638 21.6846 17.1433 21.6846H14.1158C13.1238 21.6846 13.0854 21.5404 12.7892 20.4292C12.7553 20.3019 12.7179 20.1618 12.6754 20.0078C12.1602 18.139 11.739 16.2489 11.3854 14.3459L11.383 14.3326C11.2371 13.5433 11.0888 12.7413 11.1823 11.9224C11.2613 11.2483 11.5208 11.0179 12.1564 11.1075C12.6293 11.1752 13.1033 11.2348 13.5775 11.2944C14.5967 11.4225 15.6168 11.5506 16.6281 11.7603C17.9933 12.0419 19.3509 12.3619 20.6973 12.7203C20.9342 12.7843 21.0772 12.908 21.1825 13.1811C21.4569 13.8842 21.7666 14.5758 22.0787 15.2723C22.1472 15.4255 22.2159 15.5788 22.2844 15.7326C22.3784 15.9417 22.6605 15.9715 22.7959 15.7838C23.0839 15.3878 23.3414 14.9759 23.5972 14.5665ZM16.944 17.4307C17.1508 17.4307 17.2975 17.2174 17.2223 17.0211C16.8575 16.0526 16.5002 15.1097 16.1203 14.1113C16.0226 13.8595 15.6728 13.8552 15.5675 14.1027C15.1237 15.1609 14.7439 16.155 14.3904 17.1619C14.3189 17.371 14.4468 17.4265 14.5934 17.4265C15.17 17.4328 15.7465 17.4321 16.3387 17.4313C16.5385 17.431 16.74 17.4307 16.944 17.4307ZM25.5355 11.078C26.0426 9.80083 26.5506 8.52142 26.7109 7.13096C26.82 6.18802 26.741 5.28348 25.9738 4.61361C25.1727 3.91388 24.1761 4.02908 23.2509 4.15281C21.9375 4.32624 20.7561 4.90482 19.5779 5.48185C19.3357 5.60044 19.0937 5.71896 18.8507 5.83388C18.6777 5.91495 18.6401 6.02162 18.7567 6.15815C18.9523 6.38002 19.0012 6.65309 19.0463 6.93469C18.9587 6.84638 18.8814 6.74117 18.8055 6.6378C18.676 6.46148 18.5503 6.29051 18.3844 6.21789C18.2347 6.15317 18.0639 6.26056 17.8626 6.38714C17.7454 6.46086 17.6178 6.54109 17.478 6.59762L17.4847 6.58979C18.1701 5.78686 18.1832 5.77153 17.6059 4.96348C16.7559 3.76881 15.7781 2.6936 14.5784 1.85307C13.9804 1.43493 13.326 1.12773 12.5513 1.26427C11.7803 1.4008 11.314 1.90427 10.983 2.5528C10.0654 4.35761 9.9187 6.32882 9.86981 8.31283C9.86622 8.54861 9.99579 8.54812 10.1479 8.54755C10.1554 8.54752 10.163 8.54749 10.1707 8.54749C10.3346 8.54749 10.4993 8.54358 10.6641 8.53967C11.0436 8.53065 11.4241 8.52162 11.7991 8.56029C12.3557 8.61576 12.713 8.45789 12.8522 7.89896C12.9387 7.56189 13.153 7.49789 13.4727 7.50216C14.5587 7.51496 15.6426 7.51336 16.726 7.51176C17.087 7.51122 17.448 7.51069 17.809 7.51069C18.7429 7.51069 18.7461 7.51872 19.0887 8.36813C19.0993 8.3944 19.1102 8.42146 19.1215 8.44936L19.1286 8.46684C19.4117 9.16862 19.6783 9.82936 20.607 10.0536C22.0625 10.4035 23.4653 10.9582 24.8418 11.5598C25.169 11.7048 25.3194 11.6195 25.451 11.291C25.4791 11.22 25.5073 11.149 25.5355 11.078ZM25.9288 24.1977C26.0228 24.4409 25.8423 24.7012 25.5828 24.7012C25.152 24.7012 24.7229 24.7009 24.295 24.7007H24.2945C23.0152 24.6999 21.7464 24.6991 20.4755 24.7055C20.1476 24.7055 20.0589 24.487 19.9679 24.263C19.9556 24.2326 19.9432 24.2021 19.9302 24.1721C19.7798 23.8308 19.8023 23.5065 20.0543 23.2249C20.3083 22.9385 20.5649 22.6542 20.8214 22.3701L20.8215 22.3699L20.8216 22.3699C21.1878 21.9641 21.5539 21.5585 21.9122 21.147C22.3485 20.6442 22.7657 20.1233 23.1813 19.6042L23.2887 19.4702C23.5369 19.1588 23.6986 19.1886 23.8753 19.5513C24.2439 20.3065 24.5749 21.083 24.887 21.8638C25.0337 22.235 25.1616 22.5166 25.6994 22.3545L25.888 22.2974C27.1909 21.9035 28.4952 21.5092 29.6182 20.7033C31.1865 19.5769 31.1752 18.2713 30.0055 16.9102C29.1405 15.9076 28.0725 15.1566 26.9555 14.4782C26.7411 14.3459 26.6433 14.2094 26.7524 13.9747C26.8146 13.8391 26.8808 13.705 26.947 13.5709C27.0371 13.3884 27.1273 13.2058 27.2075 13.019C27.2714 12.8697 27.3692 12.8697 27.4594 12.9294C29.0841 14.0089 30.7163 15.1011 31.6077 16.9358C32.2094 18.1732 32.1455 19.3678 31.2353 20.5156C30.3741 21.6036 29.1669 21.9748 27.9521 22.3289C27.2714 22.5294 26.5568 22.6617 25.831 22.6404C25.5264 22.6318 25.3722 22.7598 25.5 23.1481C25.5704 23.3439 25.6528 23.537 25.737 23.7344C25.8014 23.8853 25.8668 24.0387 25.9288 24.1977ZM22.4654 27.6366C22.5835 27.8888 22.5081 28.1147 22.4342 28.3357C22.4093 28.4102 22.3846 28.484 22.3676 28.5582C22.1645 29.4499 21.8223 30.2862 21.2356 30.9945C20.3894 32.0142 18.9339 32.2787 17.6402 31.6942C16.2788 31.0798 15.2107 30.1155 14.3494 28.9038C14.2957 28.8292 14.2153 28.7633 14.1353 28.6976C13.9635 28.5566 13.7931 28.4168 13.8906 28.1955C13.957 28.042 14.1581 27.9437 14.3567 27.8466C14.4396 27.8061 14.5219 27.7659 14.5939 27.7219C14.8534 27.5641 15.0226 27.5769 15.2332 27.8713C16.008 28.9507 16.8166 30.0003 17.9824 30.6958C19.1821 31.4126 20.2916 31.2547 21.1792 30.0643C21.5534 29.5618 21.8139 29.0025 22.0761 28.4395L22.0762 28.4394C22.2013 28.1708 22.3269 27.9012 22.4654 27.6366Z" fill="#AB8476"/>
</svg>
