<?xml version="1.0" encoding="utf-8"?><!DOCTYPE svg PUBLIC "-//W3C//DTD SVG 1.1//EN" "http://www.w3.org/Graphics/SVG/1.1/DTD/svg11.dtd"><svg viewBox="0 0 512 512" xmlns="http://www.w3.org/2000/svg" xmlns:xlink="http://www.w3.org/1999/xlink"><style>:root>svg{display:none}:root>svg:target{display:block}</style><svg fill="none" viewBox="0 0 13.281 24.219" id="about-mobile-dev" xmlns="http://www.w3.org/2000/svg">
    <path d="M11.71 0H1.56C1.14 0 .75.16.45.45.16.75 0 1.14 0 1.56v21.09c0 .42.16.81.45 1.11.3.29.69.45 1.11.45h10.15c.42 0 .82-.16 1.11-.45.29-.3.46-.69.46-1.11V1.56c0-.42-.17-.81-.46-1.11-.29-.29-.69-.45-1.11-.45ZM8.46.78l-.22.78H4.99l-.2-.78h3.67Zm4.04 21.87c-.01.21-.09.41-.23.55-.15.15-.35.23-.56.23H1.56c-.21 0-.41-.08-.55-.23a.747.747 0 0 1-.23-.55V1.56c0-.21.08-.41.23-.55.14-.15.34-.23.55-.23h2.43l.31 1.26a.4.4 0 0 0 .14.22c.07.05.16.08.24.08h3.86c.09 0 .17-.03.24-.08.06-.05.11-.12.14-.21L9.28.78h2.43c.21 0 .41.08.56.23.14.14.22.34.23.55v21.09Z" fill="#000"/>
    <path d="M4.68 21.87H1.95c-.11 0-.2.04-.28.11a.43.43 0 0 0-.11.28c0 .1.04.2.11.28.08.07.17.11.28.11h2.73c.11 0 .21-.04.28-.11a.43.43 0 0 0 .11-.28c0-.1-.04-.2-.11-.28a.393.393 0 0 0-.28-.11ZM6.25 21.87h-.4a.395.395 0 0 0-.39.39.395.395 0 0 0 .39.39h.4c.1 0 .2-.04.27-.11.07-.08.12-.18.12-.28 0-.1-.05-.2-.12-.28a.386.386 0 0 0-.27-.11ZM8.01 9.82a.424.424 0 0 0-.14-.06c-.06 0-.11 0-.16.01s-.09.04-.14.07c-.04.03-.07.07-.1.11l-2.34 3.91c-.05.09-.07.19-.05.29.03.1.09.19.18.24.09.06.2.07.3.05a.4.4 0 0 0 .24-.18l2.34-3.91c.03-.04.05-.09.05-.14.01-.05.01-.1 0-.15a.61.61 0 0 0-.07-.14.346.346 0 0 0-.11-.1ZM9.28 9.91a.346.346 0 0 0-.11-.1.442.442 0 0 0-.15-.05c-.1-.01-.2.02-.28.09-.09.06-.14.16-.15.26-.01.1.02.2.08.29l1.37 1.7-1.37 1.71c-.06.08-.09.19-.08.29.01.1.06.2.15.26.08.07.18.1.28.09.11-.02.2-.07.26-.15l1.57-1.95c.05-.07.08-.16.08-.25 0-.08-.03-.17-.08-.24L9.28 9.91ZM3.99 14.3c.06.08.16.13.26.15.1.01.21-.02.29-.09.08-.06.13-.16.14-.26.01-.1-.02-.21-.08-.29L3.23 12.1l1.37-1.7a.61.61 0 0 0 .07-.14c.01-.05.02-.1.01-.15-.01-.05-.02-.1-.05-.15a.313.313 0 0 0-.09-.11.267.267 0 0 0-.14-.07c-.05-.02-.1-.02-.15-.02-.05.01-.1.02-.15.05-.04.02-.08.06-.11.1l-1.57 1.95c-.05.07-.08.16-.08.24 0 .09.03.18.08.25l1.57 1.95Z" fill="#000"/>
</svg><svg fill="none" viewBox="0 0 25 23.453" id="about-web-development" xmlns="http://www.w3.org/2000/svg">
    <path d="M0 0v20.52h8.02v1.46H6.55v1.47h11.89v-1.47h-1.47v-1.46H25V0H0Zm15.51 21.98H9.48v-1.46h6.03v1.46Zm8.02-2.93H1.46v-2.93h22.07v2.93Zm0-4.4H1.46V1.46h22.07v13.19Z" fill="#000"/>
    <path d="M9.95 5.41 8.92 4.37 5.23 8.06l3.69 3.68 1.03-1.04-2.64-2.64 2.64-2.65ZM16.07 4.37l-1.03 1.04 2.64 2.65-2.64 2.64 1.03 1.04 3.69-3.68-3.69-3.69Z" fill="#000"/>
    <path d="m10.93 12.19 1.7-8.55 1.43.28-1.7 8.55-1.43-.28Z" fill="#000" fill-rule="evenodd"/>
</svg><svg fill="none" viewBox="0 0 25 20.565" id="about-web-ux" xmlns="http://www.w3.org/2000/svg">
    <path d="M23.38 0H1.61C1.18 0 .77.17.47.47.17.77 0 1.18 0 1.61v13.71c0 .43.17.84.47 1.14.3.3.71.47 1.14.47h8.31l-.54 1.61H8.06c-.11 0-.21.05-.29.12-.07.08-.11.18-.11.29v.8H4.03c-.11 0-.21.05-.29.12-.07.08-.12.18-.12.29 0 .1.05.21.12.28a.4.4 0 0 0 .29.12h17.74c.11 0 .21-.04.28-.12a.4.4 0 0 0 0-.57.401.401 0 0 0-.28-.12h-4.44v-.8c0-.11-.04-.21-.11-.29a.445.445 0 0 0-.29-.12h-1.32l-.54-1.61h8.31c.43 0 .84-.17 1.14-.47.3-.3.47-.71.48-1.14V1.61c-.01-.43-.18-.84-.48-1.14-.3-.3-.71-.47-1.14-.47Zm-6.85 19.35v.4H8.46v-.4h8.07Zm-6.3-.81.54-1.61h3.45l.54 1.61h-4.53Zm13.96-3.22c0 .21-.09.42-.24.57-.15.15-.35.23-.57.23H1.61c-.22 0-.42-.08-.57-.23a.82.82 0 0 1-.24-.57v-.81h23.39v.81ZM6.83 10.08l-.15 3.62h-.47l-.15-3.62h.77Zm-.71-.81.27-1.61h.12l.27 1.61h-.66Zm.33-2.42c-.44 0-.81-.55-.81-1.21 0-.41.42-1.01.81-1.44.34.38.8 1 .8 1.44 0 .66-.37 1.21-.8 1.21Zm4.38-.81.05.1v.31H9.27v-.31l.05-.1h1.51Zm-1.11-.8.36-.71.35.71h-.71Zm1.16 2.01v6.4c0 .02 0 .04.01.05H9.27V7.25h1.61Zm3.63-1.61h1.21v.81h-.4c-.11 0-.21.04-.29.11-.07.08-.12.18-.12.29 0 .11.05.21.12.29.08.07.18.11.29.11h.4v.81h-1.21c-.11 0-.21.04-.28.12a.4.4 0 0 0 0 .57c.07.07.17.12.28.12h1.21v.8h-.4a.4.4 0 0 0-.29.12c-.07.08-.12.18-.12.29 0 .1.05.21.12.28a.4.4 0 0 0 .29.12h.4v.81h-1.21a.393.393 0 0 0-.4.4c0 .11.04.21.12.28.07.08.17.12.28.12h1.21v1.61H12.9V4.03h2.82v.8h-1.21c-.11 0-.21.05-.28.12a.4.4 0 0 0 0 .57c.07.08.17.12.28.12Zm4.84 4.84V13.7h-1.62c.01-.01.01-.03.01-.05v-3.17h1.61Zm-1.61-.81v-.31l.8-1.61.81 1.61v.31h-1.61Zm6.45 4.03h-4.04c.01-.01.01-.03.01-.05V9.27c0-.06-.02-.13-.05-.18L18.9 6.67a.364.364 0 0 0-.14-.16.42.42 0 0 0-.43 0c-.06.04-.11.09-.15.16l-1.21 2.42c-.02.05-.04.12-.04.18v4.43h-.4V3.62c0-.1-.05-.21-.12-.28a.4.4 0 0 0-.29-.12H12.5a.4.4 0 0 0-.29.12c-.08.07-.12.18-.12.28V13.7h-.4V6.04c0-.06-.02-.12-.04-.18l-1.21-2.42a.572.572 0 0 0-.15-.16.42.42 0 0 0-.43 0c-.06.04-.11.1-.15.16l-1.2 2.42c-.03.06-.05.12-.05.18v7.61c0 .02 0 .04.01.05h-.98l.17-4.01v-.04c-.01-.01-.01-.03-.01-.04l-.37-2.24c.47-.36.78-1 .78-1.73 0-1.04-1.2-2.18-1.34-2.31a.386.386 0 0 0-.27-.11c-.11 0-.2.04-.28.11-.14.13-1.34 1.27-1.34 2.31 0 .73.32 1.37.79 1.73l-.38 2.24v.08l.16 4.01H.8V1.61c0-.22.09-.42.24-.57.15-.15.35-.24.57-.24h21.77c.22 0 .42.09.57.24.15.15.24.35.24.57V13.7Z" fill="#000"/>
</svg><svg viewBox="0 0 512 512" id="arrow-rigth" xmlns="http://www.w3.org/2000/svg">
    <path d="M73.234 244h45.531v24H73.234zM347.667 148.875l-16.889 17.05L409.599 244H140.098v24h269.501l-78.821 78.075 16.889 17.05L455.817 256z"/>
</svg><svg fill="none" viewBox="0 0 25 23.431" id="exp-courses" xmlns="http://www.w3.org/2000/svg">
    <path d="m2.92 14.95-1.86-.41C.51 15.64 0 16.88 0 18.31c0 1.4.49 2.62 1.06 3.76l6.31-1.39v2.75l2.2-1.1 2.19 1.1v-2.75l6.26 1.39c.54-1.09 1.07-2.33 1.07-3.76 0-.25-.02-.5-.05-.74H25V0H2.92v14.95ZM1.9 20.39c-.19-.5-.44-1.31-.44-2.08 0-.78.25-1.58.44-2.09l5.47 1.21v1.75L1.9 20.39Zm8.4.67-.73-.37-.74.37v-3.49h1.47v3.49Zm6.89-.67-5.43-1.21v-1.75l5.43-1.21c.19.51.43 1.31.43 2.09 0 .77-.24 1.57-.43 2.08Zm6.34-18.93v14.65H18.7c-.24-.74-.43-1.08-.68-1.57l-7.07 1.57H8.18l-3.79-.84V1.46h19.14Z" fill="#000"/>
    <path d="M8.83 2.92h10.26v1.47H8.83V2.92ZM5.85 8.78h16.22v1.47H5.85V8.78ZM8.83 11.71h10.26v1.47H8.83v-1.47ZM10.3 5.85h1.46v1.47H10.3V5.85ZM13.23 5.85h1.46v1.47h-1.46V5.85ZM16.16 5.85h1.46v1.47h-1.46V5.85Z" fill="#000"/>
</svg><svg fill="none" viewBox="0 0 25 25" id="exp-designer" xmlns="http://www.w3.org/2000/svg">
    <defs>
        <clipPath id="fa">
            <rect rx="0" width="24" height="24" transform="translate(.5 .5)" fill="#fff" fill-opacity="0"/>
        </clipPath>
    </defs>
    <rect rx="0" width="24" height="24" transform="translate(.5 .5)" fill="none"/>
    <g clip-path="url(#fa)" fill="#000">
        <path d="m20.26 19.14-.65.43 1.53 2.3H3.85l1.82-2.73h9.93v-.79H5.46c-.06 0-.12.02-.18.05-.06.03-.11.07-.14.13l-2.35 3.51c-.04.07-.06.14-.06.22v1.17c0 .21.08.41.23.55.14.15.34.23.55.23h17.97c.21 0 .41-.08.55-.23.15-.14.23-.34.23-.55v-1.17c0-.08-.02-.15-.06-.22l-1.94-2.9ZM3.51 23.43v-.78h17.97v.78H3.51ZM20.31.78H4.68c-.31 0-.61.12-.83.34-.21.22-.34.52-.34.83V12.1c0 .31.13.61.34.83.22.22.52.35.83.35h5.47v1.56H8.59c-.1 0-.2.04-.28.11a.43.43 0 0 0-.11.28v1.56c0 .11.04.2.11.28.08.07.18.11.28.11h7.81c.1 0 .2-.04.28-.11a.41.41 0 0 0 .11-.28v-1.56c0-.1-.04-.2-.11-.28a.43.43 0 0 0-.28-.11h-1.56v-1.56h5.47c.31 0 .61-.13.83-.35.21-.22.34-.52.34-.83V1.95c0-.31-.13-.61-.34-.83-.22-.22-.52-.34-.83-.34Zm-4.3 14.84v.78H8.98v-.78h7.03Zm-5.08-.78v-1.56h3.13v1.56h-3.13Zm9.77-2.74c0 .11-.04.21-.12.28-.07.07-.17.12-.27.12H4.68c-.1 0-.2-.05-.27-.12a.363.363 0 0 1-.12-.28v-1.17H20.7v1.17Zm0-1.95H4.29v-8.2c0-.11.04-.2.12-.28.07-.07.17-.11.27-.11h15.63c.1 0 .2.04.27.11.08.08.12.17.12.28v8.2Z"/>
        <path d="M18.35 11.32h.79v.78h-.79v-.78ZM8.98 9.37h1.56c.11 0 .2-.04.28-.11a.43.43 0 0 0 .11-.28v-.39h3.13v.39c0 .1.04.2.11.28.08.07.17.11.28.11h1.56c.1 0 .2-.04.28-.11a.43.43 0 0 0 .11-.28V7.42c0-.11-.04-.21-.11-.28a.43.43 0 0 0-.28-.11h-.39V4.68h.39c.1 0 .2-.04.28-.11a.41.41 0 0 0 .11-.28V2.73c0-.1-.04-.2-.11-.28a.43.43 0 0 0-.28-.11h-1.56c-.11 0-.2.04-.28.11a.43.43 0 0 0-.11.28v.39h-3.13v-.39c0-.1-.04-.2-.11-.28a.41.41 0 0 0-.28-.11H8.98c-.1 0-.2.04-.28.11a.43.43 0 0 0-.11.28v1.56c0 .11.04.2.11.28.08.07.18.11.28.11h.39v2.35h-.39c-.1 0-.2.04-.28.11-.07.07-.11.17-.11.28v1.56c0 .1.04.2.11.28.08.07.18.11.28.11Zm6.64-.78h-.78v-.78h.78v.78Zm-.78-5.47h.78v.78h-.78v-.78Zm-5.47 0h.78v.78h-.78v-.78Zm.78 1.56h.39c.11 0 .2-.04.28-.11a.41.41 0 0 0 .11-.28V3.9h3.13v.39c0 .11.04.2.11.28.08.07.17.11.28.11h.39v2.35h-.39c-.11 0-.2.04-.28.11-.07.07-.11.17-.11.28v.39h-3.13v-.39c0-.11-.04-.21-.11-.28a.41.41 0 0 0-.28-.11h-.39V4.68Zm-.78 3.13h.78v.78h-.78v-.78ZM8.98 20.31h5.47v.78H8.98v-.78ZM23.38 14.39l-1.1-1.11a.353.353 0 0 0-.13-.08.401.401 0 0 0-.3 0c-.05.02-.09.04-.12.08l-5.25 5.25c-.05.04-.08.09-.1.15l-.28.83c-.02.07-.02.14 0 .21.01.07.05.14.1.19l-.55.55.55.55.55-.55a.38.38 0 0 0 .4.1l.83-.28c.06-.02.11-.05.15-.09l5.25-5.25c.07-.08.12-.18.12-.28 0-.1-.05-.2-.12-.27Zm-5.73 5.18-.51.17-.22-.21.17-.52 3.8-3.8.56.55-3.8 3.81ZM22 15.21l-.55-.55.55-.55.55.55-.55.55Z"/>
    </g>
</svg><svg fill="none" viewBox="0 0 24.167 25" id="exp-front-end" xmlns="http://www.w3.org/2000/svg">
    <path d="M21.66 0H2.5C1.11 0 0 1.11 0 2.5v14.16c0 1.38 1.11 2.5 2.5 2.5h5.15L5.99 22.5H3.75c-.7 0-1.25.55-1.25 1.25 0 .69.55 1.25 1.25 1.25h16.66a1.25 1.25 0 0 0 0-2.5h-2.24l-1.67-3.34h5.16a2.5 2.5 0 0 0 2.5-2.5V2.5c0-1.39-1.12-2.5-2.5-2.5ZM.83 5.86l.95 1.12c.07.1.19.15.31.15h1.28c.12 0 .24-.05.32-.15l.95-1.12.93.3.1 1.47c.01.12.08.23.18.31l1.03.75c.1.07.22.09.34.06l1.43-.35.58.79-.78 1.25c-.06.11-.08.24-.04.35l.4 1.22c.03.11.12.21.24.25l1.36.56v.98l-1.37.56c-.11.04-.2.14-.23.25l-.13.39h-2.4c.93-1.96.11-4.3-1.85-5.24-1.15-.54-2.49-.5-3.6.12V5.86Zm0 5.01a3.09 3.09 0 0 1 4.34.54c.81 1.04.88 2.48.16 3.59H.83v-4.13Zm19.58 12.46a.414.414 0 1 1 0 .83H3.75c-.24 0-.42-.18-.42-.41 0-.24.18-.42.42-.42h16.66Zm-3.17-.83H6.92l1.67-3.34h6.98l1.67 3.34Zm6.09-5.84c0 .92-.75 1.67-1.67 1.67H2.5c-.93 0-1.67-.75-1.67-1.67v-.83h22.5v.83Zm0-1.66H9.68l1.31-.53c.15-.07.25-.22.26-.39v-1.54c0-.17-.11-.33-.26-.39l-1.45-.59-.28-.84.83-1.32c.09-.15.08-.33-.02-.47l-.91-1.25c-.1-.14-.27-.2-.43-.16l-1.52.38-.71-.52-.11-1.56a.447.447 0 0 0-.29-.37l-1.47-.47c-.16-.05-.34 0-.45.13l-1 1.19h-.89l-1-1.19c-.11-.13-.29-.18-.45-.13H.83V2.5c0-.93.74-1.67 1.67-1.67h19.16c.92 0 1.67.74 1.67 1.67V15Z" fill="#000"/>
</svg><svg fill="none" viewBox="0 0 19.786 25" id="exp-university" xmlns="http://www.w3.org/2000/svg">
    <path d="m17.11 16.33-1.47-.43-3.19-2.09v-.48c.92-.69 1.55-1.76 1.67-2.98.47-.07.82-.48.82-.96V6.4c.19-.14.3-.35.3-.59V4.28l2.21-.37c.36-.06.62-.35.64-.72a.775.775 0 0 0-.54-.8L10.12.03a.755.755 0 0 0-.47 0L2.22 2.39c-.35.12-.56.44-.54.8.02.24.13.44.3.57v1.99h-.02a.76.76 0 0 0-.76.76v.99l-.49 2.87c-.08.5.3.95.81.95h1.66c.5 0 .88-.45.8-.95L3.49 7.5v-.99a.76.76 0 0 0-.76-.76h-.02V3.97l1.82.31v1.53c0 .24.12.45.3.58l.01 1.69v1.31c0 .48.35.89.81.96.12 1.22.76 2.29 1.68 2.98v.48L4.14 15.9l-1.47.43C1.1 16.79 0 18.23 0 19.9v1.09c0 .21.16.37.36.37.2 0 .37-.16.37-.37V19.9a3 3 0 0 1 2.15-2.87l1.36-.4 5.46 3.24c.11.07.26.07.38 0l5.45-3.24 1.37.4c1.26.37 2.15 1.55 2.15 2.87v3.54c0 .45-.37.82-.82.82h-1.62v-1.58c0-.2-.16-.36-.36-.36a.36.36 0 0 0-.37.36v1.58H3.9v-1.58c0-.2-.17-.36-.37-.36-.2 0-.37.16-.37.36v1.58H1.55c-.45 0-.82-.37-.82-.82v-.73a.37.37 0 0 0-.37-.37c-.2 0-.36.16-.36.37v.73C0 24.3.69 25 1.55 25h16.68c.85 0 1.55-.7 1.55-1.56V19.9c0-1.63-1.07-3.1-2.67-3.57ZM3.18 10.59H1.52c-.05 0-.09-.05-.08-.1l.44-2.6h.93l.45 2.6c.01.05-.03.1-.08.1Zm-.42-4.08v.65h-.82v-.65c0-.02.01-.03.02-.03h.77c.02 0 .03.01.03.03Zm5.82 11.71.14.22-3.73-2.22 2.37-1.55c.11 1.26.52 2.48 1.22 3.55Zm0-1.58c.86.12 1.76.12 2.62 0-.17.41-.37.8-.62 1.18l-.69 1.07-.7-1.07c-.24-.38-.45-.77-.61-1.18Zm2.62 1.58a7.811 7.811 0 0 0 1.22-3.55l2.37 1.55-3.74 2.22.15-.22Zm2.14-11.69h.87v1.18h-.43c-.24 0-.44-.2-.44-.44v-.74ZM2.45 3.09 9.87.73h.03l7.43 2.36c.01.01.04.01.03.05 0 .04-.02.04-.04.05l-2.45.41-.92-.11a.365.365 0 0 0-.41.32c-.03.2.11.38.32.41l.65.08v1.5H5.27V4.3l3.79-.47c.55-.07 1.11-.07 1.66 0l1.43.18c.2.02.39-.12.41-.32.03-.2-.12-.39-.32-.41l-1.43-.18c-.61-.07-1.23-.07-1.84 0l-4.06.5-2.46-.41c-.01-.01-.04-.01-.04-.05s.02-.04.04-.05Zm3.12 4.62V6.53h.87v.74c0 .24-.2.44-.44.44h-.43Zm.8 2.45a.56.56 0 0 0-.56-.53c-.13 0-.24-.11-.24-.24v-.95H6c.64 0 1.17-.52 1.17-1.17v-.74h5.44v.74c0 .65.52 1.17 1.17 1.17h.43v.95c0 .13-.11.24-.24.24-.3 0-.55.23-.57.53a3.522 3.522 0 0 1-3.51 3.3c-1.86 0-3.4-1.45-3.52-3.3Zm3.52 4.03c.65 0 1.27-.15 1.82-.41v.23c0 .63-.08 1.24-.24 1.84-1 .19-2.12.2-3.16 0a7.1 7.1 0 0 1-.25-1.84v-.23c.56.26 1.18.41 1.83.41Z" fill="#000"/>
</svg><svg style="enable-background:new 0 0 438.549 438.549" xml:space="preserve" viewBox="0 0 438.549 438.549" id="github" xmlns="http://www.w3.org/2000/svg">
    <path d="M409.132 114.573c-19.608-33.596-46.205-60.194-79.798-79.8-33.598-19.607-70.277-29.408-110.063-29.408-39.781 0-76.472 9.804-110.063 29.408-33.596 19.605-60.192 46.204-79.8 79.8C9.803 148.168 0 184.854 0 224.63c0 47.78 13.94 90.745 41.827 128.906 27.884 38.164 63.906 64.572 108.063 79.227 5.14.954 8.945.283 11.419-1.996 2.475-2.282 3.711-5.14 3.711-8.562 0-.571-.049-5.708-.144-15.417a2549.81 2549.81 0 0 1-.144-25.406l-6.567 1.136c-4.187.767-9.469 1.092-15.846 1-6.374-.089-12.991-.757-19.842-1.999-6.854-1.231-13.229-4.086-19.13-8.559-5.898-4.473-10.085-10.328-12.56-17.556l-2.855-6.57c-1.903-4.374-4.899-9.233-8.992-14.559-4.093-5.331-8.232-8.945-12.419-10.848l-1.999-1.431c-1.332-.951-2.568-2.098-3.711-3.429-1.142-1.331-1.997-2.663-2.568-3.997-.572-1.335-.098-2.43 1.427-3.289 1.525-.859 4.281-1.276 8.28-1.276l5.708.853c3.807.763 8.516 3.042 14.133 6.851 5.614 3.806 10.229 8.754 13.846 14.842 4.38 7.806 9.657 13.754 15.846 17.847 6.184 4.093 12.419 6.136 18.699 6.136 6.28 0 11.704-.476 16.274-1.423 4.565-.952 8.848-2.383 12.847-4.285 1.713-12.758 6.377-22.559 13.988-29.41-10.848-1.14-20.601-2.857-29.264-5.14-8.658-2.286-17.605-5.996-26.835-11.14-9.235-5.137-16.896-11.516-22.985-19.126-6.09-7.614-11.088-17.61-14.987-29.979-3.901-12.374-5.852-26.648-5.852-42.826 0-23.035 7.52-42.637 22.557-58.817-7.044-17.318-6.379-36.732 1.997-58.24 5.52-1.715 13.706-.428 24.554 3.853 10.85 4.283 18.794 7.952 23.84 10.994 5.046 3.041 9.089 5.618 12.135 7.708 17.705-4.947 35.976-7.421 54.818-7.421s37.117 2.474 54.823 7.421l10.849-6.849c7.419-4.57 16.18-8.758 26.262-12.565 10.088-3.805 17.802-4.853 23.134-3.138 8.562 21.509 9.325 40.922 2.279 58.24 15.036 16.18 22.559 35.787 22.559 58.817 0 16.178-1.958 30.497-5.853 42.966-3.9 12.471-8.941 22.457-15.125 29.979-6.191 7.521-13.901 13.85-23.131 18.986-9.232 5.14-18.182 8.85-26.84 11.136-8.662 2.286-18.415 4.004-29.263 5.146 9.894 8.562 14.842 22.077 14.842 40.539v60.237c0 3.422 1.19 6.279 3.572 8.562 2.379 2.279 6.136 2.95 11.276 1.995 44.163-14.653 80.185-41.062 108.068-79.226 27.88-38.161 41.825-81.126 41.825-128.906-.01-39.771-9.818-76.454-29.414-110.049z"/>
</svg><svg viewBox="0 0 32 32" id="telegram" xmlns="http://www.w3.org/2000/svg">
    <path d="M16 .5C7.437.5.5 7.438.5 16S7.438 31.5 16 31.5c8.563 0 15.5-6.938 15.5-15.5S24.562.5 16 .5zm7.613 10.619-2.544 11.988c-.188.85-.694 1.056-1.4.656l-3.875-2.856-1.869 1.8c-.206.206-.381.381-.781.381l.275-3.944 7.181-6.488c.313-.275-.069-.431-.482-.156l-8.875 5.587-3.825-1.194c-.831-.262-.85-.831.175-1.231l14.944-5.763c.694-.25 1.3.169 1.075 1.219z"/>
</svg><svg fill="none" viewBox="0 0 48 48" id="whatsapp" xmlns="http://www.w3.org/2000/svg">
    <path fill-rule="evenodd" clip-rule="evenodd" d="M24 48C10.745 48 0 37.255 0 24S10.745 0 24 0s24 10.745 24 24-10.745 24-24 24Zm.791-10.648c7.869-.003 14.268-6.404 14.271-14.27a14.184 14.184 0 0 0-4.176-10.097A14.18 14.18 0 0 0 24.791 8.8c-7.866 0-14.268 6.402-14.271 14.27a14.246 14.246 0 0 0 1.905 7.135L10.4 37.6l7.565-1.985a14.26 14.26 0 0 0 6.82 1.737h.006Z" fill="#000"/>
    <path fill-rule="evenodd" clip-rule="evenodd" d="m18.316 33.032-4.49 1.178 1.199-4.378-.282-.448a11.833 11.833 0 0 1-1.814-6.313c.003-6.54 5.324-11.86 11.867-11.86a11.78 11.78 0 0 1 8.386 3.478 11.79 11.79 0 0 1 3.47 8.392c-.002 6.54-5.323 11.861-11.86 11.861h-.006c-2.128 0-4.216-.572-6.037-1.653l-.433-.257Zm13.665-6.557c-.09-.149-.327-.238-.684-.416-.356-.179-2.11-1.041-2.436-1.16-.327-.12-.565-.179-.803.178-.237.357-.92 1.16-1.129 1.398-.208.238-.416.268-.772.09-.357-.18-1.506-.556-2.868-1.77-1.06-.946-1.776-2.114-1.984-2.47-.207-.358-.022-.55.157-.729.16-.16.357-.416.535-.624.178-.208.238-.357.356-.595.12-.238.06-.446-.03-.625-.088-.178-.802-1.933-1.099-2.647-.29-.696-.583-.602-.802-.613a14.21 14.21 0 0 0-.684-.012c-.237 0-.624.089-.95.446-.327.357-1.248 1.22-1.248 2.975 0 1.755 1.277 3.45 1.456 3.689.178.238 2.514 3.84 6.091 5.384.85.367 1.515.587 2.033.751.854.271 1.632.233 2.246.141.685-.102 2.11-.862 2.407-1.695.297-.833.297-1.547.208-1.696Z" fill="#000"/>
</svg></svg>