<svg width="24" height="24" fill="none" xmlns="http://www.w3.org/2000/svg"><path d="M3 10.5l10.182-5.278a1 1 0 01.869-.025l6.01 2.686a1 1 0 01.036 1.81l-7.462 3.696a4 4 0 01-3.492.029L3 10.5z" fill="#AB8476"/><path d="M13.182 5.222l.115.222-.115-.222zM3 10.5l-.115-.222a.25.25 0 00-.135.222H3zm6.143 2.918l.108-.226-.108.226zm3.492-.03l-.111-.223.11.224zm7.462-3.695l.111.224-.11-.224zm-.036-1.81l.102-.228-.102.228zm-6.01-2.686l.102-.228-.102.228zm-9.945 9.606l-.112.223.112-.223zm5.282 2.92a.25.25 0 10.224-.447l-.224.448zm2.986-.439a.25.25 0 10.252.432l-.252-.432zm6.252-3.068a.25.25 0 10-.252-.432l.252.432zM13.067 5L2.885 10.278l.23.444 10.182-5.278-.23-.444zM2.893 10.726l6.143 2.917.215-.451-6.144-2.918-.214.452zm9.853 2.887l7.462-3.696-.222-.449-7.462 3.697.222.448zm7.417-5.958l-6.01-2.686-.204.456 6.01 2.687.204-.457zM2.75 10.5v2.514h.5V10.5h-.5zm1.244 4.526l5.394 2.698.224-.448-5.395-2.697-.223.447zm8.632 2.69l6-3.5-.252-.432-6 3.5.252.432zM2.75 13.014a2.25 2.25 0 001.244 2.012l.223-.447a1.75 1.75 0 01-.967-1.565h-.5zm17.458-3.097c.948-.47.92-1.83-.045-2.262l-.204.457a.75.75 0 01.027 1.356l.222.449zM9.036 13.643a4.25 4.25 0 003.71-.03l-.222-.448a3.75 3.75 0 01-3.273.027l-.215.451zm4.261-8.2a.75.75 0 01.652-.018l.204-.456a1.25 1.25 0 00-1.086.03l.23.445z" fill="#AB8476"/><path fill-rule="evenodd" clip-rule="evenodd" d="M20.805 12.965a1.19 1.19 0 11-2.38 0 1.19 1.19 0 012.38 0zm.5 0a1.69 1.69 0 11-3.38 0 1.69 1.69 0 013.38 0zm-9.211 4.346a1.17 1.17 0 11-2.34 0 1.17 1.17 0 012.34 0zm.52 0a1.69 1.69 0 11-3.38 0 1.69 1.69 0 013.38 0z" fill="#AB8476"/></svg>